<?xml version="1.0" encoding="UTF-8" standalone="no"?>
<!-- Created with Inkscape (http://www.inkscape.org/) -->

<svg
   xmlns:dc="http://purl.org/dc/elements/1.1/"
   xmlns:cc="http://creativecommons.org/ns#"
   xmlns:rdf="http://www.w3.org/1999/02/22-rdf-syntax-ns#"
   xmlns:svg="http://www.w3.org/2000/svg"
   xmlns="http://www.w3.org/2000/svg"
   xmlns:sodipodi="http://sodipodi.sourceforge.net/DTD/sodipodi-0.dtd"
   xmlns:inkscape="http://www.inkscape.org/namespaces/inkscape"
   version="1.1"
   id="svg815"
   width="512"
   height="512"
   viewBox="0 0 512 512"
   sodipodi:docname="petCry.svg"
   inkscape:version="0.92.2 (5c3e80d, 2017-08-06)">
  <metadata
     id="metadata821">
    <rdf:RDF>
      <cc:Work
         rdf:about="">
        <dc:format>image/svg+xml</dc:format>
        <dc:type
           rdf:resource="http://purl.org/dc/dcmitype/StillImage" />
        <dc:title></dc:title>
      </cc:Work>
    </rdf:RDF>
  </metadata>
  <defs
     id="defs819" />
  <sodipodi:namedview
     pagecolor="#ffffff"
     bordercolor="#666666"
     borderopacity="1"
     objecttolerance="10"
     gridtolerance="10"
     guidetolerance="10"
     inkscape:pageopacity="0"
     inkscape:pageshadow="2"
     inkscape:window-width="1600"
     inkscape:window-height="837"
     id="namedview817"
     showgrid="false"
     inkscape:zoom="1.8451068"
     inkscape:cx="197.62199"
     inkscape:cy="146.47863"
     inkscape:window-x="-8"
     inkscape:window-y="-8"
     inkscape:window-maximized="1"
     inkscape:current-layer="svg815"
     inkscape:measure-start="0,0"
     inkscape:measure-end="0,0" />
  <path
     style="fill:#00aad4;fill-opacity:1;stroke:none;stroke-width:1px;stroke-linecap:butt;stroke-linejoin:miter;stroke-opacity:1"
     d="m 195.49559,28.181282 c -1.39675,0.859563 -40.83569,37.411368 -56.76505,63.028299 -16.10558,25.900329 -28.28863,56.029219 -37.4639,84.179879 -9.004135,27.6256 -12.828092,64.04256 -10.823526,85.12433 2.464661,25.92053 10.058046,47.22914 21.283086,68.30058 11.305,21.22156 23.23605,35.6461 37.73488,48.28743 18.56097,16.18306 40.49353,29.08827 63.61676,37.55688 21.41621,7.84344 46.60078,11.01076 69.34602,9.32911 30.2958,-2.23989 59.67652,-10.48359 84.71386,-26.19138 25.7221,-16.1374 48.26764,-38.87881 61.31737,-61.31737 13.9762,-24.03159 22.41983,-51.99233 24.52695,-79.71257 2.25116,-29.6151 -4.30566,-59.75343 -13.02994,-88.14372 C 430.453,137.71107 416.2335,107.81313 397.79641,81.245509 383.47623,60.610303 366.09636,41.452181 345.67665,26.826347 288.94525,-13.808128 240.48475,-4.4378277 195.49559,28.181282 Z"
     id="path829"
     inkscape:connector-curvature="0"
     sodipodi:nodetypes="csssssssssssssc"
     inkscape:export-xdpi="96"
     inkscape:export-ydpi="96" />
  <path
     style="fill:#ffcc00;stroke:none;stroke-width:1px;stroke-linecap:butt;stroke-linejoin:miter;stroke-opacity:1"
     d="m 192.1298,405.5021 c 0,0 -18.13777,19.10978 -28.72462,26.82771 -9.44336,6.88432 -22.87414,8.32298 -30.62154,17.07219 -4.91516,5.55073 -10.71047,13.54988 -8.40059,20.59501 3.06968,9.36252 15.48989,13.78534 25.20179,15.44626 15.29768,2.61619 28.88659,-4.53775 42.81595,-11.38145 12.42552,-6.10484 24.80061,-14.72665 34.41535,-25.2018 6.93475,-7.55533 16.37147,-26.66897 16.37147,-26.66897 -19.05903,-3.52322 -36.33457,-8.82994 -51.05781,-16.68895 z"
     id="path835"
     inkscape:connector-curvature="0"
     sodipodi:nodetypes="csssssscc"
     inkscape:export-xdpi="96"
     inkscape:export-ydpi="96" />
  <path
     style="fill:#ffcc00;stroke:none;stroke-width:1px;stroke-linecap:butt;stroke-linejoin:miter;stroke-opacity:1"
     d="m 349.80274,407.04704 c 0,0 18.71262,17.75484 29.29947,25.47277 9.44336,6.88432 22.87414,8.32298 30.62154,17.07219 4.91516,5.55073 10.71047,13.54988 8.40059,20.59501 -3.06968,9.36252 -15.48989,13.78534 -25.20179,15.44626 -15.29768,2.61619 -28.88659,-4.53775 -42.81595,-11.38145 -12.42552,-6.10484 -24.80061,-14.72665 -34.41535,-25.2018 -6.93475,-7.55533 -16.8012,-26.82771 -16.8012,-26.82771 19.05903,-3.52322 35.6146,-8.27435 50.91269,-15.17527 z"
     id="path835-6"
     inkscape:connector-curvature="0"
     sodipodi:nodetypes="csssssscc"
     inkscape:export-xdpi="96"
     inkscape:export-ydpi="96" />
  <path
     style="fill:#ffcc00;stroke:none;stroke-width:1px;stroke-linecap:butt;stroke-linejoin:miter;stroke-opacity:1"
     d="m 452.54834,259.98206 c 0,0 22.51647,16.6183 30.35055,27.91167 9.16874,13.21738 14.33296,29.08761 18.15613,44.71286 2.73862,11.19271 3.56987,22.89686 3.25184,34.41535 -0.23447,8.49201 0.37364,17.79899 -3.79382,25.20179 -2.42262,4.30339 -6.78141,7.68792 -11.38145,9.48455 -5.05466,1.97419 -11.10224,2.50191 -16.25922,0.81296 -6.52911,-2.13833 -12.71304,-6.96794 -15.98824,-13.00738 -4.07059,-7.50614 -1.75259,-16.98777 -2.70987,-25.47278 -1.11163,-9.85313 -0.77376,-22.26095 -3.79382,-31.70548 -2.35159,-7.35405 -10.83948,-18.15613 -10.83948,-18.15613 4.99058,-17.29697 11.0777,-34.29352 13.00738,-54.19741 z"
     id="path868"
     inkscape:connector-curvature="0"
     sodipodi:nodetypes="cssssssssscc"
     inkscape:export-xdpi="96"
     inkscape:export-ydpi="96" />
  <path
     style="fill:#000000;stroke:#000000;stroke-width:1.29736805px;stroke-linecap:butt;stroke-linejoin:miter;stroke-opacity:1"
     d="m 172.60356,159.44587 c -6.69576,0.0634 -8.35819,0.53036 -12.77123,3.52284 -5.40536,3.66537 -4.15122,10.51243 -2.2806,13.27836 1.88432,2.78618 4.92999,4.51221 9.57843,5.69073 3.49597,0.88633 7.85423,0.80904 11.40288,0 3.81939,-0.87076 7.41139,-2.67003 9.12231,-4.87777 2.54424,-3.28302 3.07129,-7.57619 0.45612,-10.83948 -2.88911,-3.60514 -8.78805,-6.83826 -15.50791,-6.77468 z"
     id="path870"
     inkscape:connector-curvature="0"
     sodipodi:nodetypes="ssssssss"
     inkscape:export-xdpi="96"
     inkscape:export-ydpi="96" />
  <path
     style="fill:#000000;stroke:none;stroke-width:1px;stroke-linecap:butt;stroke-linejoin:miter;stroke-opacity:1"
     d="m 236.0297,210.66342 c -3.54389,-0.33506 -7.22505,-2.98017 -8.67158,-6.23271 -1.66195,-3.73691 -0.15716,-8.39438 1.35493,-12.19441 2.05055,-5.15324 5.78453,-9.51247 10.29751,-12.7364 4.48596,-3.20463 10.05753,-4.52662 15.44626,-5.69072 5.68441,-1.22797 11.52767,-1.87841 17.34317,-1.89691 6.1748,-0.0196 12.48276,0.22563 18.42712,1.89691 6.45656,1.81529 13.0998,4.26523 18.15613,8.67158 3.58863,3.12732 6.5483,7.34724 7.85862,11.92343 0.99491,3.47466 1.4856,7.68077 -0.27098,10.83949 -1.68031,3.02158 -5.21424,5.70325 -8.67159,5.69072 -3.58252,-0.013 -7.2717,-1.24737 -8.4006,-6.2327 -2.25399,-15.48631 -15.45142,-16.62852 -27.36671,-16.83736 -16.64557,-1.06968 -26.21364,6.39976 -26.9527,16.94497 -0.23255,3.31805 -4.79161,6.52684 -8.54958,5.85411 z"
     id="path887"
     inkscape:connector-curvature="0"
     sodipodi:nodetypes="cssssssssssccsc"
     inkscape:export-xdpi="96"
     inkscape:export-ydpi="96" />
  <path
     style="fill:#0088aa;stroke:none;stroke-width:1px;stroke-linecap:butt;stroke-linejoin:miter;stroke-opacity:1"
     d="m 175.90346,47.36949 c 0,0 -12.61645,-11.807546 -20.08592,-15.016533 -9.42815,-4.050461 -20.12841,-6.045383 -30.35055,-5.148754 -8.02621,0.704014 -15.85084,3.989688 -22.76291,8.129611 -6.69314,4.008799 -13.038425,9.210498 -17.343166,15.717248 -6.226007,9.410801 -10.156655,20.732956 -11.110468,31.976469 -0.65022,7.664768 0.974684,15.605819 3.793819,22.762909 3.415544,8.67123 8.582117,17.00095 15.44626,23.30489 5.686606,5.2225 20.324025,11.87692 20.324025,11.87692 13.31314,-29.84229 21.72844,-52.603455 62.08891,-93.60276 z"
     id="path906"
     inkscape:connector-curvature="0"
     sodipodi:nodetypes="cssssssscc"
     inkscape:export-xdpi="96"
     inkscape:export-ydpi="96" />
  <path
     style="fill:#ffcc00;stroke:none;stroke-width:1px;stroke-linecap:butt;stroke-linejoin:miter;stroke-opacity:1"
     d="m 155.30844,69.828537 c 0,0 -7.0084,-6.433114 -11.14334,-8.208981 -5.36415,-2.303785 -11.59396,-3.452853 -17.34317,-2.438883 -4.73561,0.835205 -9.3025,3.408376 -12.73639,6.774675 -3.84056,3.764964 -6.60961,8.860188 -7.85862,14.091326 -1.04972,4.396481 -0.69894,9.202961 0.54197,13.549351 1.05502,3.695311 3.11392,7.175485 5.69073,10.026525 2.30238,2.54741 5.32784,4.42927 8.4006,5.96171 1.8662,0.93071 5.96171,3.04661 5.96171,3.04661 6.96717,-13.236158 15.78083,-28.131546 28.48651,-42.802333 z"
     id="path908"
     inkscape:connector-curvature="0"
     sodipodi:nodetypes="cssssssscc"
     inkscape:export-xdpi="96"
     inkscape:export-ydpi="96" />
  <path
     style="fill:#0088aa;stroke:none;stroke-width:1px;stroke-linecap:butt;stroke-linejoin:miter;stroke-opacity:1"
     d="m 367.96751,45.855814 c 0,0 15.24539,-13.106137 24.15072,-15.941741 9.64956,-3.072576 20.46246,-3.54134 30.35055,-1.354935 9.74385,2.154513 19.101,7.187339 26.55673,13.820339 6.60755,5.878409 11.734,13.693762 14.90429,21.949949 3.56271,9.278144 5.06256,19.649143 4.0648,29.537587 -0.71127,7.049137 -3.44723,13.949967 -7.04566,20.053037 -3.93189,6.66862 -9.36403,12.55394 -15.44626,17.34317 -4.66724,3.67505 -16.48372,8.01737 -16.48372,8.01737 -14.68032,-33.75473 -33.40055,-64.714164 -61.05145,-93.424776 z"
     id="path910"
     inkscape:connector-curvature="0"
     sodipodi:nodetypes="cssssssscc"
     inkscape:export-xdpi="96"
     inkscape:export-ydpi="96" />
  <path
     style="fill:#ffcc00;stroke:none;stroke-width:1px;stroke-linecap:butt;stroke-linejoin:miter;stroke-opacity:1"
     d="m 388.37091,68.777466 c 0,0 7.56307,-6.947647 11.87693,-8.512845 5.27553,-1.914121 11.38379,-2.549111 16.8012,-1.083948 5.15123,1.393172 9.83702,4.864189 13.27836,8.942572 3.25902,3.862315 5.5813,8.808913 6.23271,13.820338 0.70825,5.448661 -0.47873,11.238111 -2.70987,16.259222 -1.5925,3.583885 -4.20387,6.827985 -7.31665,9.213555 -2.89015,2.21494 -10.79299,4.52742 -10.79299,4.52742 -9.91526,-17.620752 -18.89677,-31.314904 -27.36969,-43.166314 z"
     id="path912"
     inkscape:connector-curvature="0"
     sodipodi:nodetypes="csssssscc"
     inkscape:export-xdpi="96"
     inkscape:export-ydpi="96" />
  <path
     style="fill:#f4d7ee;stroke:none;stroke-width:1px;stroke-linecap:butt;stroke-linejoin:miter;stroke-opacity:1"
     d="m 91.737937,275.92814 c 5.400118,21.93292 9.055653,38.92611 33.070333,75.14665 l 294.68733,-0.33673 c 14.19385,-17.90463 20.54872,-36.09199 26.39662,-56.03147 1.75556,-6.04076 4.21556,-18.39521 4.21556,-18.39521 z"
     id="path914"
     inkscape:connector-curvature="0"
     sodipodi:nodetypes="cccccc"
     inkscape:export-xdpi="96"
     inkscape:export-ydpi="96" />
  <path
     style="fill:#000000;stroke:#000000;stroke-width:1.29736805px;stroke-linecap:butt;stroke-linejoin:miter;stroke-opacity:1"
     d="m 371.0595,160.20652 c 6.69576,0.0634 8.35819,0.53036 12.77123,3.52284 5.40536,3.66537 4.15122,10.51243 2.2806,13.27836 -1.88432,2.78618 -4.92999,4.51221 -9.57843,5.69073 -3.49597,0.88633 -7.85423,0.80904 -11.40288,0 -3.81939,-0.87076 -7.41139,-2.67003 -9.12231,-4.87777 -2.54424,-3.28302 -3.07129,-7.57619 -0.45612,-10.83948 2.88911,-3.60514 8.78805,-6.83826 15.50791,-6.77468 z"
     id="path870-2"
     inkscape:connector-curvature="0"
     sodipodi:nodetypes="ssssssss"
     inkscape:export-xdpi="96"
     inkscape:export-ydpi="96" />
  <path
     style="fill:#00ffff;fill-opacity:1;stroke:none;stroke-width:1px;stroke-linecap:butt;stroke-linejoin:miter;stroke-opacity:1"
     d="m 161.37278,180.44737 c 0,0 -7.62982,13.94754 -6.91017,22.08544 0.77604,8.7755 12.24336,14.49795 12.4654,23.30489 0.26682,10.58326 -12.9692,18.15391 -13.54935,28.72462 -0.66999,12.20779 13.10035,22.51696 11.92343,34.68634 -0.90381,9.3454 -13.77418,15.00518 -14.09133,24.38883 -0.3739,11.06258 13.85702,18.76693 14.6333,29.80858 0.69314,9.85916 -9.53243,18.3043 -9.21356,28.18265 0.18832,5.8342 6.50369,16.25922 6.50369,16.25922 l 9.07311,6.64678 11.25092,6.63158 c 0,0 -5.04446,-16.55809 -4.60678,-24.65981 0.51161,-9.47031 9.17103,-17.62775 8.67158,-27.09871 -0.6134,-11.63173 -14.54409,-20.33738 -14.09132,-31.97647 0.43043,-11.06495 15.51799,-18.19507 15.71725,-29.2666 0.21372,-11.87488 -16.02533,-20.10366 -15.71725,-31.97647 0.27901,-10.75274 15.25992,-17.43602 15.71725,-28.18265 0.42973,-10.09803 -11.43124,-17.58655 -12.46541,-27.64067 -0.68169,-6.62737 4.20031,-18.56262 4.20031,-18.56262 0,0 -6.99594,1.55402 -10.44355,1.20693 -3.03651,-0.3057 -9.06752,-2.56186 -9.06752,-2.56186 z"
     id="path6488"
     inkscape:connector-curvature="0"
     sodipodi:nodetypes="cssssssscccssssssscsc" />
  <path
     style="fill:#00ffff;fill-opacity:1;stroke:none;stroke-width:1px;stroke-linecap:butt;stroke-linejoin:miter;stroke-opacity:1"
     d="m 382.07862,181.66449 c 0,0 7.62982,13.94754 6.91017,22.08544 -0.77604,8.7755 -12.24336,14.49795 -12.4654,23.30489 -0.26682,10.58326 12.9692,18.15391 13.54935,28.72462 0.66999,12.20779 -13.10035,22.51696 -11.92343,34.68634 0.90381,9.3454 13.77418,15.00518 14.09133,24.38883 0.3739,11.06258 -13.85702,18.76693 -14.6333,29.80858 -0.69314,9.85916 9.53243,18.3043 9.21356,28.18265 -0.18832,5.8342 -6.50369,16.25922 -6.50369,16.25922 l -9.07311,6.64678 -11.25092,6.63158 c 0,0 5.04446,-16.55809 4.60678,-24.65981 -0.51161,-9.47031 -9.17103,-17.62775 -8.67158,-27.09871 0.6134,-11.63173 14.54409,-20.33738 14.09132,-31.97647 -0.43043,-11.06495 -15.51799,-18.19507 -15.71725,-29.2666 -0.21372,-11.87488 16.02533,-20.10366 15.71725,-31.97647 -0.27901,-10.75274 -15.25992,-17.43602 -15.71725,-28.18265 -0.42973,-10.09803 11.43124,-17.58655 12.46541,-27.64067 0.68169,-6.62737 -4.20031,-18.56262 -4.20031,-18.56262 0,0 6.99594,1.55402 10.44355,1.20693 3.03651,-0.3057 9.06752,-2.56186 9.06752,-2.56186 z"
     id="path6488-9"
     inkscape:connector-curvature="0"
     sodipodi:nodetypes="cssssssscccssssssscsc" />
  <path
     style="fill:#ffcc00;fill-opacity:1;stroke:none;stroke-width:1px;stroke-linecap:butt;stroke-linejoin:miter;stroke-opacity:1"
     d="m 103.41361,312.31822 c 0,0 -31.808307,3.70473 -46.91954,-1.18706 -12.233456,-3.9602 -21.952042,-12.69911 -28.583775,-22.58354 -7.118673,-10.6102 -8.621296,-22.87155 -8.748618,-34.84702 -0.09752,-9.17221 1.922156,-18.6766 6.131736,-26.82635 4.401167,-8.52066 11.100188,-16.26643 19.161677,-21.46108 10.800257,-6.95945 20.468833,-10.81277 32.996601,-13.6649 12.083987,-2.75109 28.223519,-2.30081 40.584239,-3.19737 11.97652,-0.86869 24.19809,-2.08342 36.02395,0 5.89014,1.0377 12.03024,4.72286 15.77833,9.38358 4.84582,6.02575 2.05045,17.9949 0.89797,24.61994 -18.06779,19.10131 -38.14896,11.51799 -63.86382,16.07985 0,0 -26.102664,-1.82093 -35.760944,8.48561 -3.163952,3.37631 -4.747241,5.88898 -3.158858,10.54456 1.777062,5.2086 6.403229,8.19291 10.99355,8.29963 4.627777,0.10759 11.46012,-7.84326 11.46012,-7.84326 1.717579,19.81128 6.999233,37.24651 13.007382,54.19741 z"
     id="path6516"
     inkscape:connector-curvature="0"
     sodipodi:nodetypes="cssssssssscsssscc" />
</svg>
