<?xml version="1.0" encoding="UTF-8" standalone="no"?>
<!-- Created with Inkscape (http://www.inkscape.org/) -->

<svg
   xmlns:dc="http://purl.org/dc/elements/1.1/"
   xmlns:cc="http://creativecommons.org/ns#"
   xmlns:rdf="http://www.w3.org/1999/02/22-rdf-syntax-ns#"
   xmlns:svg="http://www.w3.org/2000/svg"
   xmlns="http://www.w3.org/2000/svg"
   xmlns:sodipodi="http://sodipodi.sourceforge.net/DTD/sodipodi-0.dtd"
   xmlns:inkscape="http://www.inkscape.org/namespaces/inkscape"
   version="1.1"
   id="svg815"
   width="512"
   height="512"
   viewBox="0 0 512 512"
   sodipodi:docname="petDead.svg"
   inkscape:version="0.92.2 (5c3e80d, 2017-08-06)">
  <metadata
     id="metadata821">
    <rdf:RDF>
      <cc:Work
         rdf:about="">
        <dc:format>image/svg+xml</dc:format>
        <dc:type
           rdf:resource="http://purl.org/dc/dcmitype/StillImage" />
        <dc:title />
      </cc:Work>
    </rdf:RDF>
  </metadata>
  <defs
     id="defs819" />
  <sodipodi:namedview
     pagecolor="#ffffff"
     bordercolor="#666666"
     borderopacity="1"
     objecttolerance="10"
     gridtolerance="10"
     guidetolerance="10"
     inkscape:pageopacity="0"
     inkscape:pageshadow="2"
     inkscape:window-width="1600"
     inkscape:window-height="837"
     id="namedview817"
     showgrid="false"
     inkscape:zoom="1.1328413"
     inkscape:cx="162.51924"
     inkscape:cy="253.90262"
     inkscape:window-x="-8"
     inkscape:window-y="-8"
     inkscape:window-maximized="1"
     inkscape:current-layer="svg815"
     inkscape:measure-start="0,0"
     inkscape:measure-end="0,0" />
  <path
     style="fill:#00aad4;fill-opacity:1;stroke:none;stroke-width:1px;stroke-linecap:butt;stroke-linejoin:miter;stroke-opacity:1"
     d="m 195.49559,28.181282 c -1.39675,0.859563 -40.83569,37.411368 -56.76505,63.028299 -16.10558,25.900329 -28.28863,56.029219 -37.4639,84.179879 -9.004135,27.6256 -12.828092,64.04256 -10.823526,85.12433 2.464661,25.92053 10.058046,47.22914 21.283086,68.30058 11.305,21.22156 23.23605,35.6461 37.73488,48.28743 18.56097,16.18306 40.49353,29.08827 63.61676,37.55688 21.41621,7.84344 46.60078,11.01076 69.34602,9.32911 30.2958,-2.23989 59.67652,-10.48359 84.71386,-26.19138 25.7221,-16.1374 48.26764,-38.87881 61.31737,-61.31737 13.9762,-24.03159 22.41983,-51.99233 24.52695,-79.71257 2.25116,-29.6151 -4.30566,-59.75343 -13.02994,-88.14372 C 430.453,137.71107 416.2335,107.81313 397.79641,81.245509 383.47623,60.610303 366.09636,41.452181 345.67665,26.826347 288.94525,-13.808128 240.48475,-4.4378277 195.49559,28.181282 Z"
     id="path829"
     inkscape:connector-curvature="0"
     sodipodi:nodetypes="csssssssssssssc"
     inkscape:export-xdpi="96"
     inkscape:export-ydpi="96" />
  <path
     style="fill:#ffcc00;stroke:none;stroke-width:1px;stroke-linecap:butt;stroke-linejoin:miter;stroke-opacity:1"
     d="m 192.1298,405.5021 c 0,0 -18.13777,19.10978 -28.72462,26.82771 -9.44336,6.88432 -22.87414,8.32298 -30.62154,17.07219 -4.91516,5.55073 -10.71047,13.54988 -8.40059,20.59501 3.06968,9.36252 15.48989,13.78534 25.20179,15.44626 15.29768,2.61619 28.88659,-4.53775 42.81595,-11.38145 12.42552,-6.10484 24.80061,-14.72665 34.41535,-25.2018 6.93475,-7.55533 16.37147,-26.66897 16.37147,-26.66897 -19.05903,-3.52322 -36.33457,-8.82994 -51.05781,-16.68895 z"
     id="path835"
     inkscape:connector-curvature="0"
     sodipodi:nodetypes="csssssscc"
     inkscape:export-xdpi="96"
     inkscape:export-ydpi="96" />
  <path
     style="fill:#ffcc00;stroke:none;stroke-width:1px;stroke-linecap:butt;stroke-linejoin:miter;stroke-opacity:1"
     d="m 349.80274,407.04704 c 0,0 18.71262,17.75484 29.29947,25.47277 9.44336,6.88432 22.87414,8.32298 30.62154,17.07219 4.91516,5.55073 10.71047,13.54988 8.40059,20.59501 -3.06968,9.36252 -15.48989,13.78534 -25.20179,15.44626 -15.29768,2.61619 -28.88659,-4.53775 -42.81595,-11.38145 -12.42552,-6.10484 -24.80061,-14.72665 -34.41535,-25.2018 -6.93475,-7.55533 -16.8012,-26.82771 -16.8012,-26.82771 19.05903,-3.52322 35.6146,-8.27435 50.91269,-15.17527 z"
     id="path835-6"
     inkscape:connector-curvature="0"
     sodipodi:nodetypes="csssssscc"
     inkscape:export-xdpi="96"
     inkscape:export-ydpi="96" />
  <path
     style="fill:#000000;stroke:#000000;stroke-width:1.29736805px;stroke-linecap:butt;stroke-linejoin:miter;stroke-opacity:1"
     d="m 172.60356,159.44587 c -6.69576,0.0634 -8.35819,0.53036 -12.77123,3.52284 -5.40536,3.66537 -4.15122,10.51243 -2.2806,13.27836 1.88432,2.78618 4.92999,4.51221 9.57843,5.69073 3.49597,0.88633 7.85423,0.80904 11.40288,0 3.81939,-0.87076 7.41139,-2.67003 9.12231,-4.87777 2.54424,-3.28302 3.07129,-7.57619 0.45612,-10.83948 -2.88911,-3.60514 -8.78805,-6.83826 -15.50791,-6.77468 z"
     id="path870"
     inkscape:connector-curvature="0"
     sodipodi:nodetypes="ssssssss"
     inkscape:export-xdpi="96"
     inkscape:export-ydpi="96" />
  <path
     style="fill:#000000;stroke:none;stroke-width:1px;stroke-linecap:butt;stroke-linejoin:miter;stroke-opacity:1"
     d="m 236.0297,210.66342 c -3.54389,-0.33506 -7.22505,-2.98017 -8.67158,-6.23271 -1.66195,-3.73691 -0.15716,-8.39438 1.35493,-12.19441 2.05055,-5.15324 5.78453,-9.51247 10.29751,-12.7364 4.48596,-3.20463 10.05753,-4.52662 15.44626,-5.69072 5.68441,-1.22797 11.52767,-1.87841 17.34317,-1.89691 6.1748,-0.0196 12.48276,0.22563 18.42712,1.89691 6.45656,1.81529 13.0998,4.26523 18.15613,8.67158 3.58863,3.12732 6.5483,7.34724 7.85862,11.92343 0.99491,3.47466 1.4856,7.68077 -0.27098,10.83949 -1.68031,3.02158 -5.21424,5.70325 -8.67159,5.69072 -3.58252,-0.013 -7.2717,-1.24737 -8.4006,-6.2327 -2.25399,-15.48631 -15.45142,-16.62852 -27.36671,-16.83736 -16.64557,-1.06968 -26.21364,6.39976 -26.9527,16.94497 -0.23255,3.31805 -4.79161,6.52684 -8.54958,5.85411 z"
     id="path887"
     inkscape:connector-curvature="0"
     sodipodi:nodetypes="cssssssssssccsc"
     inkscape:export-xdpi="96"
     inkscape:export-ydpi="96" />
  <path
     style="fill:#0088aa;stroke:none;stroke-width:1px;stroke-linecap:butt;stroke-linejoin:miter;stroke-opacity:1"
     d="m 175.90346,47.36949 c 0,0 -12.61645,-11.807546 -20.08592,-15.016533 -9.42815,-4.050461 -20.12841,-6.045383 -30.35055,-5.148754 -8.02621,0.704014 -15.85084,3.989688 -22.76291,8.129611 -6.69314,4.008799 -13.038425,9.210498 -17.343166,15.717248 -6.226007,9.410801 -10.156655,20.732956 -11.110468,31.976469 -0.65022,7.664768 0.974684,15.605819 3.793819,22.762909 3.415544,8.67123 8.582117,17.00095 15.44626,23.30489 5.686606,5.2225 20.324025,11.87692 20.324025,11.87692 13.31314,-29.84229 21.72844,-52.603455 62.08891,-93.60276 z"
     id="path906"
     inkscape:connector-curvature="0"
     sodipodi:nodetypes="cssssssscc"
     inkscape:export-xdpi="96"
     inkscape:export-ydpi="96" />
  <path
     style="fill:#ffcc00;stroke:none;stroke-width:1px;stroke-linecap:butt;stroke-linejoin:miter;stroke-opacity:1"
     d="m 155.30844,69.828537 c 0,0 -7.0084,-6.433114 -11.14334,-8.208981 -5.36415,-2.303785 -11.59396,-3.452853 -17.34317,-2.438883 -4.73561,0.835205 -9.3025,3.408376 -12.73639,6.774675 -3.84056,3.764964 -6.60961,8.860188 -7.85862,14.091326 -1.04972,4.396481 -0.69894,9.202961 0.54197,13.549351 1.05502,3.695311 3.11392,7.175485 5.69073,10.026525 2.30238,2.54741 5.32784,4.42927 8.4006,5.96171 1.8662,0.93071 5.96171,3.04661 5.96171,3.04661 6.96717,-13.236158 15.78083,-28.131546 28.48651,-42.802333 z"
     id="path908"
     inkscape:connector-curvature="0"
     sodipodi:nodetypes="cssssssscc"
     inkscape:export-xdpi="96"
     inkscape:export-ydpi="96" />
  <path
     style="fill:#0088aa;stroke:none;stroke-width:1px;stroke-linecap:butt;stroke-linejoin:miter;stroke-opacity:1"
     d="m 367.96751,45.855814 c 0,0 15.24539,-13.106137 24.15072,-15.941741 9.64956,-3.072576 20.46246,-3.54134 30.35055,-1.354935 9.74385,2.154513 19.101,7.187339 26.55673,13.820339 6.60755,5.878409 11.734,13.693762 14.90429,21.949949 3.56271,9.278144 5.06256,19.649143 4.0648,29.537587 -0.71127,7.049137 -3.44723,13.949967 -7.04566,20.053037 -3.93189,6.66862 -9.36403,12.55394 -15.44626,17.34317 -4.66724,3.67505 -16.48372,8.01737 -16.48372,8.01737 -14.68032,-33.75473 -33.40055,-64.714164 -61.05145,-93.424776 z"
     id="path910"
     inkscape:connector-curvature="0"
     sodipodi:nodetypes="cssssssscc"
     inkscape:export-xdpi="96"
     inkscape:export-ydpi="96" />
  <path
     style="fill:#ffcc00;stroke:none;stroke-width:1px;stroke-linecap:butt;stroke-linejoin:miter;stroke-opacity:1"
     d="m 388.37091,68.777466 c 0,0 7.56307,-6.947647 11.87693,-8.512845 5.27553,-1.914121 11.38379,-2.549111 16.8012,-1.083948 5.15123,1.393172 9.83702,4.864189 13.27836,8.942572 3.25902,3.862315 5.5813,8.808913 6.23271,13.820338 0.70825,5.448661 -0.47873,11.238111 -2.70987,16.259222 -1.5925,3.583885 -4.20387,6.827985 -7.31665,9.213555 -2.89015,2.21494 -10.79299,4.52742 -10.79299,4.52742 -9.91526,-17.620752 -18.89677,-31.314904 -27.36969,-43.166314 z"
     id="path912"
     inkscape:connector-curvature="0"
     sodipodi:nodetypes="csssssscc"
     inkscape:export-xdpi="96"
     inkscape:export-ydpi="96" />
  <path
     style="fill:#f4d7ee;stroke:none;stroke-width:1px;stroke-linecap:butt;stroke-linejoin:miter;stroke-opacity:1"
     d="m 91.737937,275.92814 c 5.400118,21.93292 9.055653,38.92611 33.070333,75.14665 l 294.68733,-0.33673 c 14.19385,-17.90463 20.54872,-36.09199 26.39662,-56.03147 1.75556,-6.04076 4.21556,-18.39521 4.21556,-18.39521 z"
     id="path914"
     inkscape:connector-curvature="0"
     sodipodi:nodetypes="cccccc"
     inkscape:export-xdpi="96"
     inkscape:export-ydpi="96" />
  <path
     style="fill:#000000;stroke:#000000;stroke-width:1.29736805px;stroke-linecap:butt;stroke-linejoin:miter;stroke-opacity:1"
     d="m 371.0595,160.20652 c 6.69576,0.0634 8.35819,0.53036 12.77123,3.52284 5.40536,3.66537 4.15122,10.51243 2.2806,13.27836 -1.88432,2.78618 -4.92999,4.51221 -9.57843,5.69073 -3.49597,0.88633 -7.85423,0.80904 -11.40288,0 -3.81939,-0.87076 -7.41139,-2.67003 -9.12231,-4.87777 -2.54424,-3.28302 -3.07129,-7.57619 -0.45612,-10.83948 2.88911,-3.60514 8.78805,-6.83826 15.50791,-6.77468 z"
     id="path870-2"
     inkscape:connector-curvature="0"
     sodipodi:nodetypes="ssssssss"
     inkscape:export-xdpi="96"
     inkscape:export-ydpi="96" />
  <path
     style="fill:#00ffff;fill-opacity:1;stroke:none;stroke-width:1px;stroke-linecap:butt;stroke-linejoin:miter;stroke-opacity:1"
     d="m 161.37278,180.44737 c 0,0 -7.62982,13.94754 -6.91017,22.08544 0.77604,8.7755 12.24336,14.49795 12.4654,23.30489 0.26682,10.58326 -12.9692,18.15391 -13.54935,28.72462 -0.66999,12.20779 13.10035,22.51696 11.92343,34.68634 -0.90381,9.3454 -13.77418,15.00518 -14.09133,24.38883 -0.3739,11.06258 13.85702,18.76693 14.6333,29.80858 0.69314,9.85916 -9.53243,18.3043 -9.21356,28.18265 0.18832,5.8342 6.50369,16.25922 6.50369,16.25922 l 9.07311,6.64678 11.25092,6.63158 c 0,0 -5.04446,-16.55809 -4.60678,-24.65981 0.51161,-9.47031 9.17103,-17.62775 8.67158,-27.09871 -0.6134,-11.63173 -14.54409,-20.33738 -14.09132,-31.97647 0.43043,-11.06495 15.51799,-18.19507 15.71725,-29.2666 0.21372,-11.87488 -16.02533,-20.10366 -15.71725,-31.97647 0.27901,-10.75274 15.25992,-17.43602 15.71725,-28.18265 0.42973,-10.09803 -11.43124,-17.58655 -12.46541,-27.64067 -0.68169,-6.62737 4.20031,-18.56262 4.20031,-18.56262 0,0 -6.99594,1.55402 -10.44355,1.20693 -3.03651,-0.3057 -9.06752,-2.56186 -9.06752,-2.56186 z"
     id="path6488"
     inkscape:connector-curvature="0"
     sodipodi:nodetypes="cssssssscccssssssscsc"
     inkscape:export-xdpi="96"
     inkscape:export-ydpi="96" />
  <path
     style="fill:#00ffff;fill-opacity:1;stroke:none;stroke-width:1px;stroke-linecap:butt;stroke-linejoin:miter;stroke-opacity:1"
     d="m 382.07862,181.66449 c 0,0 7.62982,13.94754 6.91017,22.08544 -0.77604,8.7755 -12.24336,14.49795 -12.4654,23.30489 -0.26682,10.58326 12.9692,18.15391 13.54935,28.72462 0.66999,12.20779 -13.10035,22.51696 -11.92343,34.68634 0.90381,9.3454 13.77418,15.00518 14.09133,24.38883 0.3739,11.06258 -13.85702,18.76693 -14.6333,29.80858 -0.69314,9.85916 9.53243,18.3043 9.21356,28.18265 -0.18832,5.8342 -6.50369,16.25922 -6.50369,16.25922 l -9.07311,6.64678 -11.25092,6.63158 c 0,0 5.04446,-16.55809 4.60678,-24.65981 -0.51161,-9.47031 -9.17103,-17.62775 -8.67158,-27.09871 0.6134,-11.63173 14.54409,-20.33738 14.09132,-31.97647 -0.43043,-11.06495 -15.51799,-18.19507 -15.71725,-29.2666 -0.21372,-11.87488 16.02533,-20.10366 15.71725,-31.97647 -0.27901,-10.75274 -15.25992,-17.43602 -15.71725,-28.18265 -0.42973,-10.09803 11.43124,-17.58655 12.46541,-27.64067 0.68169,-6.62737 -4.20031,-18.56262 -4.20031,-18.56262 0,0 6.99594,1.55402 10.44355,1.20693 3.03651,-0.3057 9.06752,-2.56186 9.06752,-2.56186 z"
     id="path6488-9"
     inkscape:connector-curvature="0"
     sodipodi:nodetypes="cssssssscccssssssscsc"
     inkscape:export-xdpi="96"
     inkscape:export-ydpi="96" />
  <path
     style="fill:#ffcc00;fill-opacity:1;stroke:none;stroke-width:1px;stroke-linecap:butt;stroke-linejoin:miter;stroke-opacity:1"
     d="m 452.54834,259.98206 c 0,0 12.80275,2.26572 17.88514,5.96172 6.89657,5.01531 14.53198,12.75459 17.88515,20.59501 7.65102,16.79915 10.32167,37.59665 1.08395,53.65543 -7.15664,11.95038 -11.9751,15.54159 -23.30489,22.22094 -13.05131,7.69426 -36.88498,8.01366 -52.02951,7.58764 -14.556,-0.40946 -30.82278,-0.40135 -44.98385,-3.79382 -18.41363,-4.41124 -36.76712,-9.62505 -52.57148,-20.05304 -8.68983,-5.7337 -16.62056,-9.12519 -17.34317,-19.51106 -0.46666,-6.70708 4.78311,-21.62648 10.29751,-25.47278 8.13746,-5.67591 18.12703,-3.44254 27.0987,-2.16791 12.62339,1.79345 23.65889,9.56433 35.77029,13.54936 10.15968,3.34285 20.35572,6.83592 30.89252,8.67158 9.99213,1.74077 20.26743,3.26495 30.35055,2.1679 5.05753,-0.55026 14.06386,0.71961 14.6333,-4.3358 0.37121,-3.2956 -8.67159,-4.87776 -8.67159,-4.87776 v 0 c 3.50229,-9.94801 8.07009,-29.84903 13.00738,-54.19741 z"
     id="path6536"
     inkscape:connector-curvature="0"
     sodipodi:nodetypes="csccsssssssssssccc" />
  <path
     style="fill:#ffcc00;fill-opacity:1;stroke:none;stroke-width:1px;stroke-linecap:butt;stroke-linejoin:miter;stroke-opacity:1"
     d="m 91.532488,260.73491 c 0,0 -12.80275,2.26572 -17.88514,5.96172 -6.89657,5.01531 -14.53198,12.75459 -17.88515,20.59501 -7.65102,16.79915 -10.32167,37.59665 -1.08395,53.65543 7.15664,11.95038 11.9751,15.54159 23.30489,22.22094 13.05131,7.69426 36.884982,8.01366 52.029512,7.58764 14.556,-0.40946 30.82278,-0.40135 44.98385,-3.79382 18.41363,-4.41124 36.76712,-9.62505 52.57148,-20.05304 8.68983,-5.7337 16.62056,-9.12519 17.34317,-19.51106 0.46666,-6.70708 -4.78311,-21.62648 -10.29751,-25.47278 -8.13746,-5.67591 -18.12703,-3.44254 -27.0987,-2.16791 -12.62339,1.79345 -23.65889,9.56433 -35.77029,13.54936 -10.15968,3.34285 -20.35572,6.83592 -30.89252,8.67158 -9.99213,1.74077 -20.26743,3.26495 -30.35055,2.1679 -5.05753,-0.55026 -14.063862,0.71961 -14.633302,-4.3358 -0.37121,-3.2956 8.671592,-4.87776 8.671592,-4.87776 v 0 c -3.50229,-9.94801 -8.070092,-29.84903 -13.007382,-54.19741 z"
     id="path6536-9"
     inkscape:connector-curvature="0"
     sodipodi:nodetypes="csccsssssssssssccc" />
  <path
     style="fill:#ffcc00;fill-opacity:1;stroke:none;stroke-width:1px;stroke-linecap:butt;stroke-linejoin:miter;stroke-opacity:1"
     d="m 190.76922,-31.966294 c -1.75067,7.482278 13.33927,15.482807 23.23914,17.255824 13.78643,2.469081 28.73594,3.612166 42.53134,3.952558 13.3695,0.329883 26.74181,-0.585206 40.10608,-1.083948 11.38643,-0.424931 26.47222,0.445296 37.40186,-2.775623 10.01639,-2.95179 19.22774,-5.199665 23.84121,-14.567547 1.74159,-3.536393 1.61004,-7.76267 -1.53293,-11.726171 -5.41828,-6.832804 -15.3085,-8.16794 -23.93985,-9.410817 -15.93951,-2.295221 -32.13607,-2.337715 -48.23569,-2.70987 -14.92749,-0.34506 -42.66125,0.841724 -44.79223,0.443345 -2.66636,-0.498464 -29.46059,1.488642 -39.75572,8.22824 -6.20264,4.060496 -9.80449,11.956305 -8.63871,11.956305 l 9.72266,1.051072 c 0,0 3.30195,-4.957559 6.4283,-6.695306 4.86438,-2.703814 12.30995,-3.964616 17.78253,-4.976395 20.47267,-0.512039 42.97423,-0.836022 62.50667,-0.499469 10.84881,0.302084 18.57352,0.240155 27.54603,1.083949 8.40224,0.502215 32.32667,1.18974 34.3961,7.756007 1.14054,4.602855 -3.63388,6.931898 -7.74638,9.292929 -7.84412,4.503395 -17.64351,3.807376 -26.71547,4.751902 -13.14786,1.368889 -26.05752,0.792652 -39.26987,1.209812 -12.1364,0.383189 -24.09101,1.043474 -36.15587,-0.327111 -11.32273,-1.286278 -25.83142,-0.966628 -36.43977,-7.4714 -2.0257,-1.242104 -2.33227,-4.124918 -2.33227,-4.124918 0.70965,0.236551 -9.32128,-3.28837 -9.94716,-0.613368 z"
     id="path6573"
     inkscape:connector-curvature="0"
     sodipodi:nodetypes="sssssssssssccsccccssssscs" />
  <path
     style="fill:#f4d7ee;fill-opacity:1;stroke:none;stroke-width:1px;stroke-linecap:butt;stroke-linejoin:miter;stroke-opacity:1"
     d="m 97.961809,184.78316 c 0,0 -63.506273,-49.29023 -92.271081,-52.165 -5.79855904,-0.57951 -12.464669,1.51573 -16.530209,5.69072 -3.567642,3.66368 -5.012017,9.53561 -4.606779,14.6333 0.544201,6.84579 4.711255,13.24154 9.213558,18.42712 6.98147096,8.04098 26.285742,18.15613 26.285742,18.15613 0,0 -22.824729,-7.06679 -31.434495,-1.08395 -5.160576,3.58603 -8.366575,12.07931 -5.961715,17.88515 2.473444,5.97142 11.133462,6.87846 17.34316995895783,8.67158 C 7.9358118,217.28976 24.65982,217.4371 24.65982,217.4371 c 0,0 -28.499924,3.72121 -36.312262,14.09132 -6.603717,8.76578 -8.467056,23.28419 -2.980857,32.78943 3.979985,6.89562 11.6996263,10.90066 19.4943014,12.52327 11.6761996,2.43063 20.3057846,2.40374 37.0064936,-1.81928 21.746036,-5.4988 40.464936,-14.28693 49.664992,-14.28693 0,0 -1.564837,-45.53667 6.429321,-75.95175 z"
     id="path6575"
     inkscape:connector-curvature="0"
     sodipodi:nodetypes="csssscssscsssscc" />
  <path
     style="fill:#f4d7ee;fill-opacity:1;stroke:none;stroke-width:1px;stroke-linecap:butt;stroke-linejoin:miter;stroke-opacity:1"
     d="m 444.55855,184.6545 c 0,0 65.06674,-49.91442 93.83155,-52.78919 5.79856,-0.57951 12.46467,1.51573 16.53021,5.69072 3.56764,3.66368 5.01201,9.53561 4.60677,14.6333 -0.5442,6.84579 -4.71125,13.24154 -9.21355,18.42712 -6.98147,8.04098 -26.28575,18.15613 -26.28575,18.15613 0,0 22.82473,-7.06679 31.4345,-1.08395 5.16058,3.58603 8.36657,12.07931 5.96171,17.88515 -2.47344,5.97142 -11.13346,6.87846 -17.34317,8.67158 -7.93581,2.29155 -24.65982,2.43889 -24.65982,2.43889 0,0 28.49993,3.72121 36.31227,14.09132 6.60371,8.76578 8.46705,23.28419 2.98085,32.78943 -3.97998,6.89562 -12.6359,11.21276 -20.43058,12.83537 -11.6762,2.43063 -19.3695,2.09164 -36.07021,-2.13138 -21.74604,-5.4988 -40.46494,-14.28693 -49.66499,-14.28693 0,0 0.004,-44.91248 -7.98979,-75.32756 z"
     id="path6575-3"
     inkscape:connector-curvature="0"
     sodipodi:nodetypes="csssscssscsssscc" />
</svg>
