<?xml version="1.0" encoding="UTF-8" standalone="no"?>
<!-- Created with Inkscape (http://www.inkscape.org/) -->

<svg
   xmlns:dc="http://purl.org/dc/elements/1.1/"
   xmlns:cc="http://creativecommons.org/ns#"
   xmlns:rdf="http://www.w3.org/1999/02/22-rdf-syntax-ns#"
   xmlns:svg="http://www.w3.org/2000/svg"
   xmlns="http://www.w3.org/2000/svg"
   xmlns:sodipodi="http://sodipodi.sourceforge.net/DTD/sodipodi-0.dtd"
   xmlns:inkscape="http://www.inkscape.org/namespaces/inkscape"
   version="1.1"
   id="svg815"
   width="512"
   height="512"
   viewBox="0 0 512 512"
   sodipodi:docname="petFeed.svg"
   inkscape:version="0.92.2 (5c3e80d, 2017-08-06)">
  <metadata
     id="metadata821">
    <rdf:RDF>
      <cc:Work
         rdf:about="">
        <dc:format>image/svg+xml</dc:format>
        <dc:type
           rdf:resource="http://purl.org/dc/dcmitype/StillImage" />
        <dc:title></dc:title>
      </cc:Work>
    </rdf:RDF>
  </metadata>
  <defs
     id="defs819" />
  <sodipodi:namedview
     pagecolor="#ffffff"
     bordercolor="#666666"
     borderopacity="1"
     objecttolerance="10"
     gridtolerance="10"
     guidetolerance="10"
     inkscape:pageopacity="0"
     inkscape:pageshadow="2"
     inkscape:window-width="1600"
     inkscape:window-height="837"
     id="namedview817"
     showgrid="false"
     inkscape:zoom="0.80103977"
     inkscape:cx="272.54869"
     inkscape:cy="260.53658"
     inkscape:window-x="-8"
     inkscape:window-y="-8"
     inkscape:window-maximized="1"
     inkscape:current-layer="svg815"
     inkscape:measure-start="0,0"
     inkscape:measure-end="0,0" />
  <path
     style="fill:#00aad4;fill-opacity:1;stroke:none;stroke-width:1px;stroke-linecap:butt;stroke-linejoin:miter;stroke-opacity:1"
     d="m 195.49559,28.181282 c -1.39675,0.859563 -40.83569,37.411368 -56.76505,63.028299 -16.10558,25.900329 -28.28863,56.029219 -37.4639,84.179879 -9.004135,27.6256 -12.828092,64.04256 -10.823526,85.12433 2.464661,25.92053 10.058046,47.22914 21.283086,68.30058 11.305,21.22156 23.23605,35.6461 37.73488,48.28743 18.56097,16.18306 40.49353,29.08827 63.61676,37.55688 21.41621,7.84344 46.60078,11.01076 69.34602,9.32911 30.2958,-2.23989 59.67652,-10.48359 84.71386,-26.19138 25.7221,-16.1374 48.26764,-38.87881 61.31737,-61.31737 13.9762,-24.03159 22.41983,-51.99233 24.52695,-79.71257 2.25116,-29.6151 -4.30566,-59.75343 -13.02994,-88.14372 C 430.453,137.71107 416.2335,107.81313 397.79641,81.245509 383.47623,60.610303 366.09636,41.452181 345.67665,26.826347 288.94525,-13.808128 240.48475,-4.4378277 195.49559,28.181282 Z"
     id="path829"
     inkscape:connector-curvature="0"
     sodipodi:nodetypes="csssssssssssssc"
     inkscape:export-xdpi="96"
     inkscape:export-ydpi="96" />
  <path
     style="fill:#ffcc00;stroke:none;stroke-width:1px;stroke-linecap:butt;stroke-linejoin:miter;stroke-opacity:1"
     d="m 192.1298,405.5021 c 0,0 -18.13777,19.10978 -28.72462,26.82771 -9.44336,6.88432 -22.87414,8.32298 -30.62154,17.07219 -4.91516,5.55073 -10.71047,13.54988 -8.40059,20.59501 3.06968,9.36252 15.48989,13.78534 25.20179,15.44626 15.29768,2.61619 28.88659,-4.53775 42.81595,-11.38145 12.42552,-6.10484 24.80061,-14.72665 34.41535,-25.2018 6.93475,-7.55533 16.37147,-26.66897 16.37147,-26.66897 -19.05903,-3.52322 -36.33457,-8.82994 -51.05781,-16.68895 z"
     id="path835"
     inkscape:connector-curvature="0"
     sodipodi:nodetypes="csssssscc"
     inkscape:export-xdpi="96"
     inkscape:export-ydpi="96" />
  <path
     style="fill:#ffcc00;stroke:none;stroke-width:1px;stroke-linecap:butt;stroke-linejoin:miter;stroke-opacity:1"
     d="m 349.80274,407.04704 c 0,0 18.71262,17.75484 29.29947,25.47277 9.44336,6.88432 22.87414,8.32298 30.62154,17.07219 4.91516,5.55073 10.71047,13.54988 8.40059,20.59501 -3.06968,9.36252 -15.48989,13.78534 -25.20179,15.44626 -15.29768,2.61619 -28.88659,-4.53775 -42.81595,-11.38145 -12.42552,-6.10484 -24.80061,-14.72665 -34.41535,-25.2018 -6.93475,-7.55533 -16.8012,-26.82771 -16.8012,-26.82771 19.05903,-3.52322 35.6146,-8.27435 50.91269,-15.17527 z"
     id="path835-6"
     inkscape:connector-curvature="0"
     sodipodi:nodetypes="csssssscc"
     inkscape:export-xdpi="96"
     inkscape:export-ydpi="96" />
  <path
     style="fill:#000000;stroke:none;stroke-width:1px;stroke-linecap:butt;stroke-linejoin:miter;stroke-opacity:1"
     d="m 236.0297,172.18226 c -3.54389,0.33506 -7.22505,2.98017 -8.67158,6.23271 -1.66195,3.73691 -0.15716,8.39438 1.35493,12.19441 2.05055,5.15324 5.78453,9.51247 10.29751,12.7364 4.48596,3.20463 10.05753,4.52662 15.44626,5.69072 5.68441,1.22797 11.52767,1.87841 17.34317,1.89691 6.1748,0.0196 12.48276,-0.22563 18.42712,-1.89691 6.45656,-1.81529 13.0998,-4.26523 18.15613,-8.67158 3.58863,-3.12732 6.5483,-7.34724 7.85862,-11.92343 0.99491,-3.47466 1.4856,-7.68077 -0.27098,-10.83949 -1.68031,-3.02158 -5.21424,-5.70325 -8.67159,-5.69072 -3.58252,0.013 -7.2717,1.24737 -8.4006,6.2327 -2.25399,15.48631 -15.45142,16.62852 -27.36671,16.83736 -16.64557,1.06968 -26.21364,-6.39976 -26.9527,-16.94497 -0.23255,-3.31805 -4.79161,-6.52684 -8.54958,-5.85411 z"
     id="path887"
     inkscape:connector-curvature="0"
     sodipodi:nodetypes="cssssssssssccsc"
     inkscape:export-xdpi="96"
     inkscape:export-ydpi="96" />
  <path
     style="fill:#0088aa;stroke:none;stroke-width:1px;stroke-linecap:butt;stroke-linejoin:miter;stroke-opacity:1"
     d="m 175.90346,47.36949 c 0,0 -12.61645,-11.807546 -20.08592,-15.016533 -9.42815,-4.050461 -20.12841,-6.045383 -30.35055,-5.148754 -8.02621,0.704014 -15.85084,3.989688 -22.76291,8.129611 -6.69314,4.008799 -13.038425,9.210498 -17.343166,15.717248 -6.226007,9.410801 -10.156655,20.732956 -11.110468,31.976469 -0.65022,7.664768 0.974684,15.605819 3.793819,22.762909 3.415544,8.67123 8.582117,17.00095 15.44626,23.30489 5.686606,5.2225 20.324025,11.87692 20.324025,11.87692 13.31314,-29.84229 21.72844,-52.603455 62.08891,-93.60276 z"
     id="path906"
     inkscape:connector-curvature="0"
     sodipodi:nodetypes="cssssssscc"
     inkscape:export-xdpi="96"
     inkscape:export-ydpi="96" />
  <path
     style="fill:#ffcc00;stroke:none;stroke-width:1px;stroke-linecap:butt;stroke-linejoin:miter;stroke-opacity:1"
     d="m 155.30844,69.828537 c 0,0 -7.0084,-6.433114 -11.14334,-8.208981 -5.36415,-2.303785 -11.59396,-3.452853 -17.34317,-2.438883 -4.73561,0.835205 -9.3025,3.408376 -12.73639,6.774675 -3.84056,3.764964 -6.60961,8.860188 -7.85862,14.091326 -1.04972,4.396481 -0.69894,9.202961 0.54197,13.549351 1.05502,3.695311 3.11392,7.175485 5.69073,10.026525 2.30238,2.54741 5.32784,4.42927 8.4006,5.96171 1.8662,0.93071 5.96171,3.04661 5.96171,3.04661 6.96717,-13.236158 15.78083,-28.131546 28.48651,-42.802333 z"
     id="path908"
     inkscape:connector-curvature="0"
     sodipodi:nodetypes="cssssssscc"
     inkscape:export-xdpi="96"
     inkscape:export-ydpi="96" />
  <path
     style="fill:#0088aa;stroke:none;stroke-width:1px;stroke-linecap:butt;stroke-linejoin:miter;stroke-opacity:1"
     d="m 367.96751,45.855814 c 0,0 15.24539,-13.106137 24.15072,-15.941741 9.64956,-3.072576 20.46246,-3.54134 30.35055,-1.354935 9.74385,2.154513 19.101,7.187339 26.55673,13.820339 6.60755,5.878409 11.734,13.693762 14.90429,21.949949 3.56271,9.278144 5.06256,19.649143 4.0648,29.537587 -0.71127,7.049137 -3.44723,13.949967 -7.04566,20.053037 -3.93189,6.66862 -9.36403,12.55394 -15.44626,17.34317 -4.66724,3.67505 -16.48372,8.01737 -16.48372,8.01737 -14.68032,-33.75473 -33.40055,-64.714164 -61.05145,-93.424776 z"
     id="path910"
     inkscape:connector-curvature="0"
     sodipodi:nodetypes="cssssssscc"
     inkscape:export-xdpi="96"
     inkscape:export-ydpi="96" />
  <path
     style="fill:#ffcc00;stroke:none;stroke-width:1px;stroke-linecap:butt;stroke-linejoin:miter;stroke-opacity:1"
     d="m 388.37091,68.777466 c 0,0 7.56307,-6.947647 11.87693,-8.512845 5.27553,-1.914121 11.38379,-2.549111 16.8012,-1.083948 5.15123,1.393172 9.83702,4.864189 13.27836,8.942572 3.25902,3.862315 5.5813,8.808913 6.23271,13.820338 0.70825,5.448661 -0.47873,11.238111 -2.70987,16.259222 -1.5925,3.583885 -4.20387,6.827985 -7.31665,9.213555 -2.89015,2.21494 -10.79299,4.52742 -10.79299,4.52742 -9.91526,-17.620752 -18.89677,-31.314904 -27.36969,-43.166314 z"
     id="path912"
     inkscape:connector-curvature="0"
     sodipodi:nodetypes="csssssscc"
     inkscape:export-xdpi="96"
     inkscape:export-ydpi="96" />
  <path
     style="fill:#f4d7ee;stroke:none;stroke-width:1px;stroke-linecap:butt;stroke-linejoin:miter;stroke-opacity:1"
     d="m 91.737937,275.92814 c 5.400118,21.93292 9.055653,38.92611 33.070333,75.14665 l 294.68733,-0.33673 c 14.19385,-17.90463 20.54872,-36.09199 26.39662,-56.03147 1.75556,-6.04076 4.21556,-18.39521 4.21556,-18.39521 z"
     id="path914"
     inkscape:connector-curvature="0"
     sodipodi:nodetypes="cccccc"
     inkscape:export-xdpi="96"
     inkscape:export-ydpi="96" />
  <path
     style="fill:#ffcc00;fill-opacity:1;stroke:none;stroke-width:1px;stroke-linecap:butt;stroke-linejoin:miter;stroke-opacity:1"
     d="m 452.54834,259.98206 c 0,0 12.80275,2.26572 17.88514,5.96172 6.89657,5.01531 14.53198,12.75459 17.88515,20.59501 7.65102,16.79915 10.32167,37.59665 1.08395,53.65543 -7.15664,11.95038 -11.9751,15.54159 -23.30489,22.22094 -13.05131,7.69426 -36.88498,8.01366 -52.02951,7.58764 -14.556,-0.40946 -30.82278,-0.40135 -44.98385,-3.79382 -18.41363,-4.41124 -36.76712,-9.62505 -52.57148,-20.05304 -8.68983,-5.7337 -16.62056,-9.12519 -17.34317,-19.51106 -0.46666,-6.70708 4.78311,-21.62648 10.29751,-25.47278 8.13746,-5.67591 18.12703,-3.44254 27.0987,-2.16791 12.62339,1.79345 23.65889,9.56433 35.77029,13.54936 10.15968,3.34285 20.35572,6.83592 30.89252,8.67158 9.99213,1.74077 20.26743,3.26495 30.35055,2.1679 5.05753,-0.55026 14.06386,0.71961 14.6333,-4.3358 0.37121,-3.2956 -8.67159,-4.87776 -8.67159,-4.87776 v 0 c 3.50229,-9.94801 8.07009,-29.84903 13.00738,-54.19741 z"
     id="path6536"
     inkscape:connector-curvature="0"
     sodipodi:nodetypes="csccsssssssssssccc" />
  <path
     style="fill:#ffcc00;fill-opacity:1;stroke:none;stroke-width:0.98982149px;stroke-linecap:butt;stroke-linejoin:miter;stroke-opacity:1"
     d="m 90.667207,260.73491 c 0,0 -12.54345,2.26572 -17.522904,5.96172 -6.756891,5.01531 -14.237657,12.75459 -17.522914,20.59501 -7.496061,16.79915 -10.112621,37.59665 -1.061996,53.65543 7.011693,11.95038 11.732563,15.54159 22.832885,22.22094 12.786976,7.69426 36.137932,8.01366 50.975732,7.58764 14.26119,-0.40946 30.19852,-0.40135 44.07278,-3.79382 18.04069,-4.41124 36.02246,-9.62505 51.50672,-20.05304 8.51383,-5.7337 16.28394,-9.12519 16.99191,-19.51106 0.45721,-6.70708 -4.68623,-21.62648 -10.08895,-25.47278 -7.97264,-5.67591 -17.75989,-3.44254 -26.54985,-2.16791 -12.36773,1.79345 -23.17972,9.56433 -35.04582,13.54936 -9.95391,3.34285 -19.94345,6.83592 -30.26684,8.67158 -9.78976,1.74077 -19.85695,3.26495 -29.73585,2.1679 -4.9551,-0.55026 -13.77902,0.71961 -14.336927,-4.3358 -0.363692,-3.2956 8.495967,-4.87776 8.495967,-4.87776 v 0 C 99.979789,304.98431 95.5045,285.08329 90.667207,260.73491 Z"
     id="path6536-9"
     inkscape:connector-curvature="0"
     sodipodi:nodetypes="csccsssssssssssccc" />
  <path
     style="fill:#000000;stroke:#000000;stroke-width:1px;stroke-linecap:butt;stroke-linejoin:miter;stroke-opacity:1"
     d="m 165.84407,159.44587 c -3.97808,0.0634 -4.96576,0.53036 -7.58763,3.52284 -3.21143,3.66537 -2.46632,10.51243 -1.35495,13.27836 1.11951,2.78618 2.929,4.51221 5.69073,5.69073 2.07702,0.88633 4.66635,0.80904 6.77467,0 2.26917,-0.87076 4.40325,-2.67003 5.41974,-4.87777 1.51158,-3.28302 1.82471,-7.57619 0.27099,-10.83948 -1.71648,-3.60514 -5.22115,-6.83826 -9.21355,-6.77468 z"
     id="path870-21"
     inkscape:connector-curvature="0"
     sodipodi:nodetypes="ssssssss"
     inkscape:export-xdpi="96"
     inkscape:export-ydpi="96" />
  <path
     style="fill:#000000;stroke:#000000;stroke-width:1px;stroke-linecap:butt;stroke-linejoin:miter;stroke-opacity:1"
     d="m 377.31,182.66383 c -3.97808,-0.0634 -4.96576,-0.53036 -7.58763,-3.52284 -3.21143,-3.66537 -2.46632,-10.51243 -1.35495,-13.27836 1.11951,-2.78618 2.929,-4.51221 5.69073,-5.69073 2.07702,-0.88633 4.66635,-0.80904 6.77467,0 2.26917,0.87076 4.40325,2.67003 5.41974,4.87777 1.51158,3.28302 1.82471,7.57619 0.27099,10.83948 -1.71648,3.60514 -5.22115,6.83826 -9.21355,6.77468 z"
     id="path870-8-2"
     inkscape:connector-curvature="0"
     sodipodi:nodetypes="ssssssss"
     inkscape:export-xdpi="96"
     inkscape:export-ydpi="96" />
  <path
     style="fill:#000000;stroke:none;stroke-width:1px;stroke-linecap:butt;stroke-linejoin:miter;stroke-opacity:1"
     d="m 236.0297,172.18226 c -3.54389,0.33506 -7.22505,2.98017 -8.67158,6.23271 -1.66195,3.73691 -0.15716,8.39438 1.35493,12.19441 2.05055,5.15324 5.78453,9.51247 10.29751,12.7364 4.48596,3.20463 10.05753,4.52662 15.44626,5.69072 5.68441,1.22797 11.52767,1.87841 17.34317,1.89691 6.1748,0.0196 12.48276,-0.22563 18.42712,-1.89691 6.45656,-1.81529 13.0998,-4.26523 18.15613,-8.67158 3.58863,-3.12732 6.5483,-7.34724 7.85862,-11.92343 0.99491,-3.47466 1.4856,-7.68077 -0.27098,-10.83949 -1.68031,-3.02158 -5.21424,-5.70325 -8.67159,-5.69072 -3.58252,0.013 -7.2717,1.24737 -8.4006,6.2327 -2.25399,15.48631 -15.45142,16.62852 -27.36671,16.83736 -16.64557,1.06968 -26.21364,-6.39976 -26.9527,-16.94497 -0.23255,-3.31805 -4.79161,-6.52684 -8.54958,-5.85411 z"
     id="path887-4"
     inkscape:connector-curvature="0"
     sodipodi:nodetypes="cssssssssssccsc"
     inkscape:export-xdpi="96"
     inkscape:export-ydpi="96" />
  <path
     style="fill:#ffaaaa;stroke:none;stroke-width:1px;stroke-linecap:butt;stroke-linejoin:miter;stroke-opacity:1"
     d="m 146.60398,204.70071 c -2.46468,1.49383 -3.74629,1.68514 -4.87777,4.33579 -0.43864,1.0276 -0.78276,5.14165 -0.54197,6.2327 0.65062,2.94799 2.96671,5.74425 5.69073,7.04566 11.65542,2.41438 32.87177,1.73503 37.12522,0 2.59645,-1.07548 4.94052,-3.34343 5.96172,-5.96171 0.78842,-2.02147 0.57398,-4.5052 -0.27099,-6.50369 -0.92066,-2.1775 -2.71528,-4.19337 -4.87777,-5.14875 -7.31926,-1.79774 -34.00092,-2.22468 -38.20917,0 z"
     id="path889"
     inkscape:connector-curvature="0"
     sodipodi:nodetypes="cssccsscc"
     inkscape:export-xdpi="96"
     inkscape:export-ydpi="96" />
  <path
     style="fill:#ffaaaa;stroke:none;stroke-width:1px;stroke-linecap:butt;stroke-linejoin:miter;stroke-opacity:1"
     d="m 397.20156,204.80936 c 2.46468,1.49383 3.74629,1.68514 4.87777,4.33579 0.43864,1.0276 0.78276,5.14165 0.54197,6.2327 -0.65062,2.94799 -2.96671,5.74425 -5.69073,7.04566 -11.65542,2.41438 -32.87177,1.73503 -37.12522,0 -2.59645,-1.07548 -4.94052,-3.34343 -5.96172,-5.96171 -0.78842,-2.02147 -0.57398,-4.5052 0.27099,-6.50369 0.92066,-2.1775 2.71528,-4.19337 4.87777,-5.14875 7.31926,-1.79774 34.00092,-2.22468 38.20917,0 z"
     id="path889-3-5"
     inkscape:connector-curvature="0"
     sodipodi:nodetypes="cssccsscc"
     inkscape:export-xdpi="96"
     inkscape:export-ydpi="96" />
  <path
     style="fill:#000000;stroke:none;stroke-width:1px;stroke-linecap:butt;stroke-linejoin:miter;stroke-opacity:1"
     d="m 226.8632,182.73941 c 0,0 -12.55191,71.6221 -0.44137,104.16286 4.7646,12.80238 14.52281,25.16634 26.92345,30.89577 11.48665,5.30714 26.55055,5.91736 37.95766,0.44137 11.62101,-5.57867 19.4826,-18.32033 23.83388,-30.4544 12.1211,-33.80118 1.3241,-107.25244 1.3241,-107.25244 l -20.30293,21.18566 h -42.81271 z"
     id="path6751"
     inkscape:connector-curvature="0"
     sodipodi:nodetypes="csssscccc" />
  <path
     style="fill:#ff7f2a;stroke:none;stroke-width:1px;stroke-linecap:butt;stroke-linejoin:miter;stroke-opacity:1"
     d="m 246.72477,250.26873 c 5.53165,-10.30733 16.34146,-17.52363 26.92345,-22.50978 7.98752,-3.76366 17.21548,-5.13926 26.04072,-4.85505 9.55802,0.30781 19.31128,2.67019 27.80619,7.06189 9.27077,4.7928 19.62827,10.75145 23.83387,20.30294 1.66109,3.77256 1.32411,12.3583 1.32411,12.3583 l -107.25245,-0.44137 c 0,0 -0.56586,-8.39527 1.32411,-11.91693 z"
     id="path6753"
     inkscape:connector-curvature="0"
     sodipodi:nodetypes="sssssccs" />
  <path
     style="fill:#008000;stroke:none;stroke-width:0.96253657px;stroke-linecap:butt;stroke-linejoin:miter;stroke-opacity:1"
     d="m 300.10725,262.40635 -53.3637,-0.22069 c 0,0 -2.83902,0.1761 -3.68026,0.66205 -1.29991,0.7509 -1.61399,1.71906 -1.63566,3.31026 -0.0189,1.3878 -0.10242,1.97537 1.02229,2.64821 0.89414,0.5349 4.08917,0.88274 4.08917,0.88274 l 3.47579,-0.22069 99.57136,0.22069 2.65795,-10e-6 c 0,0 2.59815,0.34514 3.4758,-0.22068 0.8639,-0.55695 1.4405,-1.78282 1.43121,-2.86889 -0.0115,-1.35035 0.21084,-2.32092 -0.81784,-3.08957 -0.73703,-0.55072 -3.68025,-0.88274 -3.68025,-0.88274 h -2.86241 z"
     id="path6781"
     inkscape:connector-curvature="0"
     sodipodi:nodetypes="ccsssccccsssccc" />
  <path
     style="fill:#803300;stroke:none;stroke-width:1.23260796px;stroke-linecap:butt;stroke-linejoin:miter;stroke-opacity:1"
     d="m 298.69719,269.34661 56.41605,-0.34233 c 0,0 3.0014,0.27316 3.89076,1.02695 1.37426,1.16477 1.70631,2.66655 1.72921,5.13477 0.02,2.15271 0.10829,3.06413 -1.08075,4.10782 -0.94529,0.82972 -4.32307,1.36927 -4.32307,1.36927 l -3.6746,-0.34232 -105.26675,0.34232 -2.80998,-10e-6 c 0,0 -2.74676,0.53537 -3.67461,-0.34231 -0.91332,-0.86393 -1.5229,-2.76546 -1.51307,-4.45013 0.0122,-2.09462 -0.22291,-3.60014 0.86461,-4.79244 0.7792,-0.85426 3.89076,-1.36928 3.89076,-1.36928 h 3.02614 z"
     id="path6781-2"
     inkscape:connector-curvature="0"
     sodipodi:nodetypes="ccsssccccsssccc" />
  <path
     style="fill:#ff7f2a;stroke:none;stroke-width:1.04611599px;stroke-linecap:butt;stroke-linejoin:miter;stroke-opacity:1"
     d="m 245.72644,293.82519 c 5.53165,11.27991 16.34146,19.17713 26.92345,24.63377 7.98752,4.11879 17.21548,5.62419 26.04072,5.31317 9.55802,-0.33686 19.31128,-2.92215 27.80619,-7.72824 9.27077,-5.24505 19.62828,-11.76595 23.83388,-22.2187 1.66109,-4.12854 1.32411,-13.52442 1.32411,-13.52442 l -107.25246,0.48302 c 0,0 -0.56586,9.18743 1.32411,13.0414 z"
     id="path6753-4"
     inkscape:connector-curvature="0"
     sodipodi:nodetypes="sssssccs" />
  <path
     style="fill:#ffcc00;fill-opacity:1;stroke:none;stroke-width:1px;stroke-linecap:butt;stroke-linejoin:miter;stroke-opacity:1"
     d="m 452.54834,259.98206 c 0,0 12.80275,2.26572 17.88514,5.96172 6.89657,5.01531 14.53198,12.75459 17.88515,20.59501 7.65102,16.79915 10.32167,37.59665 1.08395,53.65543 -7.15664,11.95038 -11.9751,15.54159 -23.30489,22.22094 -13.05131,7.69426 -36.88498,8.01366 -52.02951,7.58764 -14.556,-0.40946 -30.82278,-0.40135 -44.98385,-3.79382 -18.41363,-4.41124 -36.76712,-9.62505 -52.57148,-20.05304 -8.68983,-5.7337 -16.62056,-9.12519 -17.34317,-19.51106 -0.46666,-6.70708 4.78311,-21.62648 10.29751,-25.47278 8.13746,-5.67591 18.12703,-3.44254 27.0987,-2.16791 12.62339,1.79345 23.65889,9.56433 35.77029,13.54936 10.15968,3.34285 20.35572,6.83592 30.89252,8.67158 9.99213,1.74077 20.26743,3.26495 30.35055,2.1679 5.05753,-0.55026 14.06386,0.71961 14.6333,-4.3358 0.37121,-3.2956 -8.67159,-4.87776 -8.67159,-4.87776 v 0 c 3.50229,-9.94801 8.07009,-29.84903 13.00738,-54.19741 z"
     id="path6536-4"
     inkscape:connector-curvature="0"
     sodipodi:nodetypes="csccsssssssssssccc" />
</svg>
