<?xml version="1.0" encoding="UTF-8" standalone="no"?>
<!-- Created with Inkscape (http://www.inkscape.org/) -->

<svg
   xmlns:dc="http://purl.org/dc/elements/1.1/"
   xmlns:cc="http://creativecommons.org/ns#"
   xmlns:rdf="http://www.w3.org/1999/02/22-rdf-syntax-ns#"
   xmlns:svg="http://www.w3.org/2000/svg"
   xmlns="http://www.w3.org/2000/svg"
   xmlns:sodipodi="http://sodipodi.sourceforge.net/DTD/sodipodi-0.dtd"
   xmlns:inkscape="http://www.inkscape.org/namespaces/inkscape"
   version="1.1"
   id="svg815"
   width="512"
   height="512"
   viewBox="0 0 512 512"
   sodipodi:docname="petHungry.svg"
   inkscape:version="0.92.2 (5c3e80d, 2017-08-06)">
  <metadata
     id="metadata821">
    <rdf:RDF>
      <cc:Work
         rdf:about="">
        <dc:format>image/svg+xml</dc:format>
        <dc:type
           rdf:resource="http://purl.org/dc/dcmitype/StillImage" />
        <dc:title></dc:title>
      </cc:Work>
    </rdf:RDF>
  </metadata>
  <defs
     id="defs819" />
  <sodipodi:namedview
     pagecolor="#ffffff"
     bordercolor="#666666"
     borderopacity="1"
     objecttolerance="10"
     gridtolerance="10"
     guidetolerance="10"
     inkscape:pageopacity="0"
     inkscape:pageshadow="2"
     inkscape:window-width="1600"
     inkscape:window-height="837"
     id="namedview817"
     showgrid="false"
     inkscape:zoom="1.1328413"
     inkscape:cx="345.9316"
     inkscape:cy="298.87012"
     inkscape:window-x="-8"
     inkscape:window-y="-8"
     inkscape:window-maximized="1"
     inkscape:current-layer="svg815"
     inkscape:measure-start="0,0"
     inkscape:measure-end="0,0" />
  <path
     style="fill:#00aad4;fill-opacity:1;stroke:none;stroke-width:1px;stroke-linecap:butt;stroke-linejoin:miter;stroke-opacity:1"
     d="m 195.49559,28.181282 c -1.39675,0.859563 -40.83569,37.411368 -56.76505,63.028299 -16.10558,25.900329 -28.28863,56.029219 -37.4639,84.179879 -9.004135,27.6256 -12.828092,64.04256 -10.823526,85.12433 2.464661,25.92053 10.058046,47.22914 21.283086,68.30058 11.305,21.22156 23.23605,35.6461 37.73488,48.28743 18.56097,16.18306 40.49353,29.08827 63.61676,37.55688 21.41621,7.84344 46.60078,11.01076 69.34602,9.32911 30.2958,-2.23989 59.67652,-10.48359 84.71386,-26.19138 25.7221,-16.1374 48.26764,-38.87881 61.31737,-61.31737 13.9762,-24.03159 22.41983,-51.99233 24.52695,-79.71257 2.25116,-29.6151 -4.30566,-59.75343 -13.02994,-88.14372 C 430.453,137.71107 416.2335,107.81313 397.79641,81.245509 383.47623,60.610303 366.09636,41.452181 345.67665,26.826347 288.94525,-13.808128 240.48475,-4.4378277 195.49559,28.181282 Z"
     id="path829"
     inkscape:connector-curvature="0"
     sodipodi:nodetypes="csssssssssssssc"
     inkscape:export-xdpi="96"
     inkscape:export-ydpi="96" />
  <path
     style="fill:#ffcc00;stroke:none;stroke-width:1px;stroke-linecap:butt;stroke-linejoin:miter;stroke-opacity:1"
     d="m 192.1298,405.5021 c 0,0 -18.13777,19.10978 -28.72462,26.82771 -9.44336,6.88432 -22.87414,8.32298 -30.62154,17.07219 -4.91516,5.55073 -10.71047,13.54988 -8.40059,20.59501 3.06968,9.36252 15.48989,13.78534 25.20179,15.44626 15.29768,2.61619 28.88659,-4.53775 42.81595,-11.38145 12.42552,-6.10484 24.80061,-14.72665 34.41535,-25.2018 6.93475,-7.55533 16.37147,-26.66897 16.37147,-26.66897 -19.05903,-3.52322 -36.33457,-8.82994 -51.05781,-16.68895 z"
     id="path835"
     inkscape:connector-curvature="0"
     sodipodi:nodetypes="csssssscc"
     inkscape:export-xdpi="96"
     inkscape:export-ydpi="96" />
  <path
     style="fill:#ffcc00;stroke:none;stroke-width:1px;stroke-linecap:butt;stroke-linejoin:miter;stroke-opacity:1"
     d="m 349.80274,407.04704 c 0,0 18.71262,17.75484 29.29947,25.47277 9.44336,6.88432 22.87414,8.32298 30.62154,17.07219 4.91516,5.55073 10.71047,13.54988 8.40059,20.59501 -3.06968,9.36252 -15.48989,13.78534 -25.20179,15.44626 -15.29768,2.61619 -28.88659,-4.53775 -42.81595,-11.38145 -12.42552,-6.10484 -24.80061,-14.72665 -34.41535,-25.2018 -6.93475,-7.55533 -16.8012,-26.82771 -16.8012,-26.82771 19.05903,-3.52322 35.6146,-8.27435 50.91269,-15.17527 z"
     id="path835-6"
     inkscape:connector-curvature="0"
     sodipodi:nodetypes="csssssscc"
     inkscape:export-xdpi="96"
     inkscape:export-ydpi="96" />
  <path
     style="fill:#000000;stroke:#000000;stroke-width:1.29736805px;stroke-linecap:butt;stroke-linejoin:miter;stroke-opacity:1"
     d="m 172.60356,159.44587 c -6.69576,0.0634 -8.35819,0.53036 -12.77123,3.52284 -5.40536,3.66537 -4.15122,10.51243 -2.2806,13.27836 1.88432,2.78618 4.92999,4.51221 9.57843,5.69073 3.49597,0.88633 7.85423,0.80904 11.40288,0 3.81939,-0.87076 7.41139,-2.67003 9.12231,-4.87777 2.54424,-3.28302 3.07129,-7.57619 0.45612,-10.83948 -2.88911,-3.60514 -8.78805,-6.83826 -15.50791,-6.77468 z"
     id="path870"
     inkscape:connector-curvature="0"
     sodipodi:nodetypes="ssssssss"
     inkscape:export-xdpi="96"
     inkscape:export-ydpi="96" />
  <path
     style="fill:#000000;stroke:none;stroke-width:1px;stroke-linecap:butt;stroke-linejoin:miter;stroke-opacity:1"
     d="m 236.0297,210.66342 c -3.54389,-0.33506 -7.22505,-2.98017 -8.67158,-6.23271 -1.66195,-3.73691 -0.15716,-8.39438 1.35493,-12.19441 2.05055,-5.15324 5.78453,-9.51247 10.29751,-12.7364 4.48596,-3.20463 10.05753,-4.52662 15.44626,-5.69072 5.68441,-1.22797 11.52767,-1.87841 17.34317,-1.89691 6.1748,-0.0196 12.48276,0.22563 18.42712,1.89691 6.45656,1.81529 13.0998,4.26523 18.15613,8.67158 3.58863,3.12732 6.5483,7.34724 7.85862,11.92343 0.99491,3.47466 1.4856,7.68077 -0.27098,10.83949 -1.68031,3.02158 -5.21424,5.70325 -8.67159,5.69072 -3.58252,-0.013 -7.2717,-1.24737 -8.4006,-6.2327 -2.25399,-15.48631 -15.45142,-16.62852 -27.36671,-16.83736 -16.64557,-1.06968 -26.21364,6.39976 -26.9527,16.94497 -0.23255,3.31805 -4.79161,6.52684 -8.54958,5.85411 z"
     id="path887"
     inkscape:connector-curvature="0"
     sodipodi:nodetypes="cssssssssssccsc"
     inkscape:export-xdpi="96"
     inkscape:export-ydpi="96" />
  <path
     style="fill:#0088aa;stroke:none;stroke-width:1px;stroke-linecap:butt;stroke-linejoin:miter;stroke-opacity:1"
     d="m 175.90346,47.36949 c 0,0 -12.61645,-11.807546 -20.08592,-15.016533 -9.42815,-4.050461 -20.12841,-6.045383 -30.35055,-5.148754 -8.02621,0.704014 -15.85084,3.989688 -22.76291,8.129611 -6.69314,4.008799 -13.038425,9.210498 -17.343166,15.717248 -6.226007,9.410801 -10.156655,20.732956 -11.110468,31.976469 -0.65022,7.664768 0.974684,15.605819 3.793819,22.762909 3.415544,8.67123 8.582117,17.00095 15.44626,23.30489 5.686606,5.2225 20.324025,11.87692 20.324025,11.87692 13.31314,-29.84229 21.72844,-52.603455 62.08891,-93.60276 z"
     id="path906"
     inkscape:connector-curvature="0"
     sodipodi:nodetypes="cssssssscc"
     inkscape:export-xdpi="96"
     inkscape:export-ydpi="96" />
  <path
     style="fill:#ffcc00;stroke:none;stroke-width:1px;stroke-linecap:butt;stroke-linejoin:miter;stroke-opacity:1"
     d="m 155.30844,69.828537 c 0,0 -7.0084,-6.433114 -11.14334,-8.208981 -5.36415,-2.303785 -11.59396,-3.452853 -17.34317,-2.438883 -4.73561,0.835205 -9.3025,3.408376 -12.73639,6.774675 -3.84056,3.764964 -6.60961,8.860188 -7.85862,14.091326 -1.04972,4.396481 -0.69894,9.202961 0.54197,13.549351 1.05502,3.695311 3.11392,7.175485 5.69073,10.026525 2.30238,2.54741 5.32784,4.42927 8.4006,5.96171 1.8662,0.93071 5.96171,3.04661 5.96171,3.04661 6.96717,-13.236158 15.78083,-28.131546 28.48651,-42.802333 z"
     id="path908"
     inkscape:connector-curvature="0"
     sodipodi:nodetypes="cssssssscc"
     inkscape:export-xdpi="96"
     inkscape:export-ydpi="96" />
  <path
     style="fill:#0088aa;stroke:none;stroke-width:1px;stroke-linecap:butt;stroke-linejoin:miter;stroke-opacity:1"
     d="m 367.96751,45.855814 c 0,0 15.24539,-13.106137 24.15072,-15.941741 9.64956,-3.072576 20.46246,-3.54134 30.35055,-1.354935 9.74385,2.154513 19.101,7.187339 26.55673,13.820339 6.60755,5.878409 11.734,13.693762 14.90429,21.949949 3.56271,9.278144 5.06256,19.649143 4.0648,29.537587 -0.71127,7.049137 -3.44723,13.949967 -7.04566,20.053037 -3.93189,6.66862 -9.36403,12.55394 -15.44626,17.34317 -4.66724,3.67505 -16.48372,8.01737 -16.48372,8.01737 -14.68032,-33.75473 -33.40055,-64.714164 -61.05145,-93.424776 z"
     id="path910"
     inkscape:connector-curvature="0"
     sodipodi:nodetypes="cssssssscc"
     inkscape:export-xdpi="96"
     inkscape:export-ydpi="96" />
  <path
     style="fill:#ffcc00;stroke:none;stroke-width:1px;stroke-linecap:butt;stroke-linejoin:miter;stroke-opacity:1"
     d="m 388.37091,68.777466 c 0,0 7.56307,-6.947647 11.87693,-8.512845 5.27553,-1.914121 11.38379,-2.549111 16.8012,-1.083948 5.15123,1.393172 9.83702,4.864189 13.27836,8.942572 3.25902,3.862315 5.5813,8.808913 6.23271,13.820338 0.70825,5.448661 -0.47873,11.238111 -2.70987,16.259222 -1.5925,3.583885 -4.20387,6.827985 -7.31665,9.213555 -2.89015,2.21494 -10.79299,4.52742 -10.79299,4.52742 -9.91526,-17.620752 -18.89677,-31.314904 -27.36969,-43.166314 z"
     id="path912"
     inkscape:connector-curvature="0"
     sodipodi:nodetypes="csssssscc"
     inkscape:export-xdpi="96"
     inkscape:export-ydpi="96" />
  <path
     style="fill:#f4d7ee;stroke:none;stroke-width:1px;stroke-linecap:butt;stroke-linejoin:miter;stroke-opacity:1"
     d="m 91.737937,275.92814 c 5.400118,21.93292 9.055653,38.92611 33.070333,75.14665 l 294.68733,-0.33673 c 14.19385,-17.90463 20.54872,-36.09199 26.39662,-56.03147 1.75556,-6.04076 4.21556,-18.39521 4.21556,-18.39521 z"
     id="path914"
     inkscape:connector-curvature="0"
     sodipodi:nodetypes="cccccc"
     inkscape:export-xdpi="96"
     inkscape:export-ydpi="96" />
  <path
     style="fill:#000000;stroke:#000000;stroke-width:1.29736805px;stroke-linecap:butt;stroke-linejoin:miter;stroke-opacity:1"
     d="m 371.0595,160.20652 c 6.69576,0.0634 8.35819,0.53036 12.77123,3.52284 5.40536,3.66537 4.15122,10.51243 2.2806,13.27836 -1.88432,2.78618 -4.92999,4.51221 -9.57843,5.69073 -3.49597,0.88633 -7.85423,0.80904 -11.40288,0 -3.81939,-0.87076 -7.41139,-2.67003 -9.12231,-4.87777 -2.54424,-3.28302 -3.07129,-7.57619 -0.45612,-10.83948 2.88911,-3.60514 8.78805,-6.83826 15.50791,-6.77468 z"
     id="path870-2"
     inkscape:connector-curvature="0"
     sodipodi:nodetypes="ssssssss"
     inkscape:export-xdpi="96"
     inkscape:export-ydpi="96" />
  <path
     style="fill:#ffcc00;fill-opacity:1;stroke:none;stroke-width:1px;stroke-linecap:butt;stroke-linejoin:miter;stroke-opacity:1"
     d="m 452.54834,259.98206 c 0,0 12.80275,2.26572 17.88514,5.96172 6.89657,5.01531 14.53198,12.75459 17.88515,20.59501 7.65102,16.79915 10.32167,37.59665 1.08395,53.65543 -7.15664,11.95038 -11.9751,15.54159 -23.30489,22.22094 -13.05131,7.69426 -36.88498,8.01366 -52.02951,7.58764 -14.556,-0.40946 -30.82278,-0.40135 -44.98385,-3.79382 -18.41363,-4.41124 -36.76712,-9.62505 -52.57148,-20.05304 -8.68983,-5.7337 -16.62056,-9.12519 -17.34317,-19.51106 -0.46666,-6.70708 4.78311,-21.62648 10.29751,-25.47278 8.13746,-5.67591 18.12703,-3.44254 27.0987,-2.16791 12.62339,1.79345 23.65889,9.56433 35.77029,13.54936 10.15968,3.34285 20.35572,6.83592 30.89252,8.67158 9.99213,1.74077 20.26743,3.26495 30.35055,2.1679 5.05753,-0.55026 14.06386,0.71961 14.6333,-4.3358 0.37121,-3.2956 -8.67159,-4.87776 -8.67159,-4.87776 v 0 c 3.50229,-9.94801 8.07009,-29.84903 13.00738,-54.19741 z"
     id="path6536"
     inkscape:connector-curvature="0"
     sodipodi:nodetypes="csccsssssssssssccc" />
  <path
     style="fill:#ffcc00;fill-opacity:1;stroke:none;stroke-width:1px;stroke-linecap:butt;stroke-linejoin:miter;stroke-opacity:1"
     d="m 91.532488,260.73491 c 0,0 -12.80275,2.26572 -17.88514,5.96172 -6.89657,5.01531 -14.53198,12.75459 -17.88515,20.59501 -7.65102,16.79915 -10.32167,37.59665 -1.08395,53.65543 7.15664,11.95038 11.9751,15.54159 23.30489,22.22094 13.05131,7.69426 36.884982,8.01366 52.029512,7.58764 14.556,-0.40946 30.82278,-0.40135 44.98385,-3.79382 18.41363,-4.41124 36.76712,-9.62505 52.57148,-20.05304 8.68983,-5.7337 16.62056,-9.12519 17.34317,-19.51106 0.46666,-6.70708 -4.78311,-21.62648 -10.29751,-25.47278 -8.13746,-5.67591 -18.12703,-3.44254 -27.0987,-2.16791 -12.62339,1.79345 -23.65889,9.56433 -35.77029,13.54936 -10.15968,3.34285 -20.35572,6.83592 -30.89252,8.67158 -9.99213,1.74077 -20.26743,3.26495 -30.35055,2.1679 -5.05753,-0.55026 -14.063862,0.71961 -14.633302,-4.3358 -0.37121,-3.2956 8.671592,-4.87776 8.671592,-4.87776 v 0 c -3.50229,-9.94801 -8.070092,-29.84903 -13.007382,-54.19741 z"
     id="path6536-9"
     inkscape:connector-curvature="0"
     sodipodi:nodetypes="csccsssssssssssccc" />
  <path
     style="fill:#999999;stroke:none;stroke-width:1.66332674px;stroke-linecap:butt;stroke-linejoin:miter;stroke-opacity:1"
     d="m 199.08296,271.37688 c -7.23478,-3.00387 -11.47887,-5.46579 -16.09486,-9.64706 -4.3667,-3.95544 -7.69513,-12.31779 -8.99321,-19.28694 -1.05559,-6.44132 -1.2764,-13.50478 1.73609,-19.58791 3.3386,-6.74169 8.66981,-15.22503 17.02748,-16.56063 7.32299,-1.17028 13.92939,4.75121 19.21454,9.05558 5.0616,4.12233 9.08909,9.50205 11.02617,15.2944 0.87537,2.61754 1.45106,5.3544 1.717,8.13072 0.46409,4.84506 -0.0153,9.81029 -1.49153,14.47135 -1.70966,5.39767 -10.03719,14.52567 -10.03719,14.52567 l 15.57586,65.01077 8.94304,33.57928 5.67334,21.30223 c 0,0 -8.26056,5.38114 -12.93791,5.80956 -4.89535,0.44838 -13.82531,-1.87351 -13.82531,-1.87351 -7.01278,-40.19504 -9.3383,-80.21479 -17.53351,-120.22351 z"
     id="path4506"
     inkscape:connector-curvature="0"
     sodipodi:nodetypes="cscssssssccccscc" />
  <path
     style="fill:#b3b3b3;stroke:none;stroke-width:1px;stroke-linecap:butt;stroke-linejoin:miter;stroke-opacity:1"
     d="m 191.55375,213.63517 c 0,0 -9.30005,9.67854 -11.0342,15.88925 -1.26859,4.54333 0.0723,9.4768 0.88273,14.12378 2.31043,13.24858 9.35374,15.3291 12.35832,16.33062 l 10.59283,3.53095 c 0,0 -5.24087,-11.58372 -7.06189,-17.65473 -1.68283,-5.61031 -2.51596,-11.44471 -3.53095,-17.21335 -0.87614,-4.97948 -2.20684,-15.00652 -2.20684,-15.00652 z"
     id="path4508"
     inkscape:connector-curvature="0"
     sodipodi:nodetypes="cssscssc" />
  <path
     style="fill:#ffcc00;fill-opacity:1;stroke:none;stroke-width:1px;stroke-linecap:butt;stroke-linejoin:miter;stroke-opacity:1"
     d="m 91.532493,260.73491 c 0,0 -12.80275,2.26572 -17.88514,5.96172 -6.89657,5.01531 -14.53198,12.75459 -17.88515,20.59501 -7.65102,16.79915 -10.32167,37.59665 -1.08395,53.65543 7.15664,11.95038 11.9751,15.54159 23.30489,22.22094 13.05131,7.69426 36.884977,8.01366 52.029507,7.58764 14.556,-0.40946 30.82279,-0.40135 44.98386,-3.79382 18.41363,-4.41124 36.76712,-9.62505 52.57148,-20.05304 8.68983,-5.7337 16.62056,-9.12519 17.34317,-19.51106 0.46666,-6.70708 -4.78311,-21.62648 -10.29751,-25.47278 -8.13746,-5.67591 -18.12703,-3.44254 -27.0987,-2.16791 -12.62339,1.79345 -23.65889,9.56433 -35.77029,13.54936 -10.15968,3.34285 -20.35572,6.83592 -30.89253,8.67158 -9.99213,1.74077 -20.26743,3.26495 -30.35055,2.1679 -5.05753,-0.55026 -14.063857,0.71961 -14.633297,-4.3358 -0.37121,-3.2956 8.671587,-4.87776 8.671587,-4.87776 v 0 c -3.50228,-9.94801 -8.070087,-29.84903 -13.007377,-54.19741 z"
     id="path6536-9-5"
     inkscape:connector-curvature="0"
     sodipodi:nodetypes="csccsssssssssssccc" />
  <path
     style="fill:#999999;stroke:none;stroke-width:1.66332674px;stroke-linecap:butt;stroke-linejoin:miter;stroke-opacity:1"
     d="m 339.24389,270.70913 c -4.90206,-6.11024 -7.44154,-10.30839 -9.48117,-16.19314 -1.92949,-5.56692 -0.83122,-14.50007 1.37843,-21.2359 4.03703,-14.64134 10.66345,-30.45365 21.46455,-26.66159 2.59543,0.92588 -13.08018,41.16915 -9.26709,44.0001 3.16084,2.3467 10.59314,-34.50568 17.99019,-41.17238 1.24002,-1.11759 9.02279,-1.08039 7.75263,4.99989 -2.61337,12.51025 -14.22927,38.20049 -12.2435,41.6223 1.40047,1.00293 12.61903,-22.84989 20.69445,-40.05375 2.08448,-4.44077 6.54161,1.61662 6.40477,8.67659 -0.91533,10.39209 -3.66969,18.99504 -7.43211,27.53267 -1.92064,4.47226 -3.84374,10.80349 -7.37771,14.18221 -4.09259,3.91261 -15.78143,7.91751 -15.78143,7.91751 l -17.57183,64.49991 -8.28876,33.74674 -5.25828,21.40846 c 0,0 -9.83004,0.75093 -14.13807,-1.12042 -4.50883,-1.95858 -11.22526,-8.28509 -11.22526,-8.28509 13.16001,-38.62168 30.34672,-74.83778 42.38019,-113.86411 z"
     id="path4506-2"
     inkscape:connector-curvature="0"
     sodipodi:nodetypes="csccssscsccsccccscc" />
  <path
     style="fill:#ffcc00;fill-opacity:1;stroke:none;stroke-width:1px;stroke-linecap:butt;stroke-linejoin:miter;stroke-opacity:1"
     d="m 452.54834,259.98206 c 0,0 12.80275,2.26572 17.88514,5.96172 6.89657,5.01531 14.53198,12.75459 17.88515,20.59501 7.65102,16.79915 10.32167,37.59665 1.08395,53.65543 -7.15664,11.95038 -11.9751,15.54159 -23.30489,22.22094 -13.05131,7.69426 -36.88498,8.01366 -52.02951,7.58764 -14.556,-0.40946 -30.82277,-0.40135 -44.98384,-3.79382 -18.41363,-4.41124 -36.76712,-9.62505 -52.57148,-20.05304 -8.68983,-5.7337 -16.62056,-9.12519 -17.34317,-19.51106 -0.46666,-6.70708 4.78311,-21.62648 10.29751,-25.47278 8.13746,-5.67591 18.12703,-3.44254 27.0987,-2.16791 12.62339,1.79345 23.65889,9.56433 35.77029,13.54936 10.15968,3.34285 20.35572,6.83592 30.89251,8.67158 9.99213,1.74077 20.26743,3.26495 30.35055,2.1679 5.05753,-0.55026 14.06386,0.71961 14.6333,-4.3358 0.37121,-3.2956 -8.67159,-4.87776 -8.67159,-4.87776 v 0 c 3.50229,-9.94801 8.07009,-29.84903 13.00738,-54.19741 z"
     id="path6536-8"
     inkscape:connector-curvature="0"
     sodipodi:nodetypes="csccsssssssssssccc" />
  <path
     style="fill:#000080;stroke:none;stroke-width:1px;stroke-linecap:butt;stroke-linejoin:miter;stroke-opacity:1"
     d="m 146.60398,204.70071 c -2.46468,1.49383 -3.74629,1.68514 -4.87777,4.33579 -0.43864,1.0276 -0.78276,5.14165 -0.54197,6.2327 0.65062,2.94799 2.96671,5.74425 5.69073,7.04566 11.65542,2.41438 32.87177,1.73503 37.12522,0 2.59645,-1.07548 4.94052,-3.34343 5.96172,-5.96171 0.78842,-2.02147 0.57398,-4.5052 -0.27099,-6.50369 -0.92066,-2.1775 -2.71528,-4.19337 -4.87777,-5.14875 -7.31926,-1.79774 -34.00092,-2.22468 -38.20917,0 z"
     id="path889"
     inkscape:connector-curvature="0"
     sodipodi:nodetypes="cssccsscc"
     inkscape:export-xdpi="96"
     inkscape:export-ydpi="96" />
  <path
     style="fill:#000080;stroke:none;stroke-width:1px;stroke-linecap:butt;stroke-linejoin:miter;stroke-opacity:1;fill-opacity:1"
     d="m 397.20156,204.80936 c 2.46468,1.49383 3.74629,1.68514 4.87777,4.33579 0.43864,1.0276 0.78276,5.14165 0.54197,6.2327 -0.65062,2.94799 -2.96671,5.74425 -5.69073,7.04566 -11.65542,2.41438 -32.87177,1.73503 -37.12522,0 -2.59645,-1.07548 -4.94052,-3.34343 -5.96172,-5.96171 -0.78842,-2.02147 -0.57398,-4.5052 0.27099,-6.50369 0.92066,-2.1775 2.71528,-4.19337 4.87777,-5.14875 7.31926,-1.79774 34.00092,-2.22468 38.20917,0 z"
     id="path889-3"
     inkscape:connector-curvature="0"
     sodipodi:nodetypes="cssccsscc"
     inkscape:export-xdpi="96"
     inkscape:export-ydpi="96" />
  <path
     style="fill:#999999;stroke:none;stroke-width:1.66332674px;stroke-linecap:butt;stroke-linejoin:miter;stroke-opacity:1"
     d="m 199.08296,271.37688 c -7.23478,-3.00387 -11.47887,-5.46579 -16.09486,-9.64706 -4.3667,-3.95544 -7.69513,-12.31779 -8.99321,-19.28694 -1.05559,-6.44132 -1.2764,-13.50478 1.73609,-19.58791 3.3386,-6.7417 8.66981,-15.22504 17.02748,-16.56064 7.32299,-1.17028 13.92939,4.75121 19.21454,9.05558 5.0616,4.12234 9.08909,9.50206 11.02617,15.29441 0.87537,2.61754 1.45106,5.3544 1.717,8.13072 0.46409,4.84506 -0.0153,9.81029 -1.49153,14.47135 -1.70966,5.39767 -10.03719,14.52567 -10.03719,14.52567 l 15.57586,65.01077 8.94304,33.57928 5.67334,21.30223 c 0,0 -8.26056,5.38114 -12.93791,5.80956 -4.89535,0.44838 -13.82531,-1.87351 -13.82531,-1.87351 -7.01278,-40.19504 -9.3383,-80.21479 -17.53351,-120.22351 z"
     id="path4506-8"
     inkscape:connector-curvature="0"
     sodipodi:nodetypes="cscssssssccccscc" />
  <path
     style="fill:#b3b3b3;stroke:none;stroke-width:1px;stroke-linecap:butt;stroke-linejoin:miter;stroke-opacity:1"
     d="m 191.55375,213.63517 c 0,0 -9.30005,9.67854 -11.0342,15.88925 -1.26859,4.54333 0.0723,9.4768 0.88273,14.12378 2.31043,13.24858 9.35374,15.3291 12.35832,16.33062 l 10.59283,3.53095 c 0,0 -5.24087,-11.58372 -7.06189,-17.65473 -1.68283,-5.61031 -2.51596,-11.44471 -3.53095,-17.21335 -0.87614,-4.97948 -2.20684,-15.00652 -2.20684,-15.00652 z"
     id="path4508-2-5"
     inkscape:connector-curvature="0"
     sodipodi:nodetypes="cssscssc" />
  <path
     style="fill:#ffcc00;fill-opacity:1;stroke:none;stroke-width:1px;stroke-linecap:butt;stroke-linejoin:miter;stroke-opacity:1"
     d="m 91.53249,260.73491 c 0,0 -12.80275,2.26572 -17.88514,5.96172 -6.89657,5.01531 -14.53198,12.75459 -17.88515,20.59501 -7.65102,16.79915 -10.32167,37.59665 -1.08395,53.65543 7.15664,11.95038 11.9751,15.54159 23.30489,22.22094 13.05131,7.69426 36.88498,8.01366 52.02951,7.58764 14.556,-0.40946 30.82279,-0.40135 44.98386,-3.79382 18.41363,-4.41124 36.76712,-9.62505 52.57148,-20.05304 8.68983,-5.7337 16.62056,-9.12519 17.34317,-19.51106 0.46666,-6.70708 -4.78311,-21.62648 -10.29751,-25.47278 -8.13746,-5.67591 -18.12703,-3.44254 -27.0987,-2.16791 -12.62339,1.79345 -23.65889,9.56433 -35.77029,13.54936 -10.15968,3.34285 -20.35572,6.83592 -30.89253,8.67158 -9.99213,1.74077 -20.26743,3.26495 -30.35055,2.1679 -5.05753,-0.55026 -14.06386,0.71961 -14.6333,-4.3358 -0.37121,-3.2956 8.67159,-4.87776 8.67159,-4.87776 v 0 c -3.50228,-9.94801 -8.07009,-29.84903 -13.00738,-54.19741 z"
     id="path6536-9-5-6"
     inkscape:connector-curvature="0"
     sodipodi:nodetypes="csccsssssssssssccc" />
  <path
     style="fill:#999999;stroke:none;stroke-width:1.66332674px;stroke-linecap:butt;stroke-linejoin:miter;stroke-opacity:1"
     d="m 339.24389,270.70913 c -4.90206,-6.11024 -7.44154,-10.30839 -9.48117,-16.19314 -1.92949,-5.56692 -0.83122,-14.50007 1.37843,-21.2359 4.03703,-14.64134 10.66345,-30.45365 21.46455,-26.66159 2.59543,0.92588 -13.08018,41.16915 -9.26709,44.0001 3.16084,2.3467 10.59314,-34.50568 17.99019,-41.17238 1.24002,-1.11759 9.02279,-1.08039 7.75263,4.99989 -2.61337,12.51025 -14.22927,38.20049 -12.2435,41.6223 1.40047,1.00293 12.61903,-22.84989 20.69445,-40.05375 2.08448,-4.44077 6.54161,1.61662 6.40477,8.67659 -0.91533,10.39209 -3.66969,18.99504 -7.43211,27.53267 -1.92064,4.47226 -3.84374,10.80349 -7.37771,14.18221 -4.09259,3.91261 -15.78143,7.91751 -15.78143,7.91751 l -17.57183,64.49991 -8.28876,33.74674 -5.25828,21.40846 c 0,0 -9.83004,0.75093 -14.13807,-1.12042 -4.50883,-1.95858 -11.22526,-8.28509 -11.22526,-8.28509 13.16001,-38.62168 30.34672,-74.83778 42.38019,-113.86411 z"
     id="path4506-2-8"
     inkscape:connector-curvature="0"
     sodipodi:nodetypes="csccssscsccsccccscc" />
  <path
     style="fill:#ffcc00;fill-opacity:1;stroke:none;stroke-width:1px;stroke-linecap:butt;stroke-linejoin:miter;stroke-opacity:1"
     d="m 452.54834,259.98206 c 0,0 12.80275,2.26572 17.88514,5.96172 6.89657,5.01531 14.53198,12.75459 17.88515,20.59501 7.65102,16.79915 10.32167,37.59665 1.08395,53.65543 -7.15664,11.95038 -11.9751,15.54159 -23.30489,22.22094 -13.05131,7.69426 -36.88498,8.01366 -52.02951,7.58764 -14.556,-0.40946 -30.82276,-0.40135 -44.98383,-3.79382 -18.41363,-4.41124 -36.76712,-9.62505 -52.57148,-20.05304 -8.68983,-5.7337 -16.62056,-9.12519 -17.34317,-19.51106 -0.46666,-6.70708 4.78311,-21.62648 10.29751,-25.47278 8.13746,-5.67591 18.12703,-3.44254 27.0987,-2.16791 12.62339,1.79345 23.65889,9.56433 35.77029,13.54936 10.15968,3.34285 20.35572,6.83592 30.8925,8.67158 9.99213,1.74077 20.26743,3.26495 30.35055,2.1679 5.05753,-0.55026 14.06386,0.71961 14.6333,-4.3358 0.37121,-3.2956 -8.67159,-4.87776 -8.67159,-4.87776 v 0 c 3.50229,-9.94801 8.07009,-29.84903 13.00738,-54.19741 z"
     id="path6536-8-1"
     inkscape:connector-curvature="0"
     sodipodi:nodetypes="csccsssssssssssccc" />
</svg>
