<?xml version="1.0" encoding="UTF-8" standalone="no"?>
<!-- Created with Inkscape (http://www.inkscape.org/) -->

<svg
   xmlns:dc="http://purl.org/dc/elements/1.1/"
   xmlns:cc="http://creativecommons.org/ns#"
   xmlns:rdf="http://www.w3.org/1999/02/22-rdf-syntax-ns#"
   xmlns:svg="http://www.w3.org/2000/svg"
   xmlns="http://www.w3.org/2000/svg"
   xmlns:sodipodi="http://sodipodi.sourceforge.net/DTD/sodipodi-0.dtd"
   xmlns:inkscape="http://www.inkscape.org/namespaces/inkscape"
   version="1.1"
   id="svg815"
   width="512"
   height="512"
   viewBox="0 0 512 512"
   sodipodi:docname="petHappy.svg"
   inkscape:version="0.92.2 (5c3e80d, 2017-08-06)">
  <metadata
     id="metadata821">
    <rdf:RDF>
      <cc:Work
         rdf:about="">
        <dc:format>image/svg+xml</dc:format>
        <dc:type
           rdf:resource="http://purl.org/dc/dcmitype/StillImage" />
        <dc:title></dc:title>
      </cc:Work>
    </rdf:RDF>
  </metadata>
  <defs
     id="defs819" />
  <sodipodi:namedview
     pagecolor="#ffffff"
     bordercolor="#666666"
     borderopacity="1"
     objecttolerance="10"
     gridtolerance="10"
     guidetolerance="10"
     inkscape:pageopacity="0"
     inkscape:pageshadow="2"
     inkscape:window-width="1600"
     inkscape:window-height="837"
     id="namedview817"
     showgrid="false"
     inkscape:zoom="0.92255338"
     inkscape:cx="167.20934"
     inkscape:cy="181.86034"
     inkscape:window-x="-8"
     inkscape:window-y="-8"
     inkscape:window-maximized="1"
     inkscape:current-layer="svg815" />
  <path
     style="fill:#00aad4;fill-opacity:1;stroke:none;stroke-width:1px;stroke-linecap:butt;stroke-linejoin:miter;stroke-opacity:1"
     d="m 232.17622,16.921362 c -1.53511,0.577252 -47.22384,28.932195 -67.7485,51.039019 -20.75169,22.351369 -38.45975,49.602069 -52.83784,75.484809 -14.109919,25.39996 -24.812301,60.41819 -26.867166,81.49512 -2.526486,25.91459 0.861502,48.28056 7.85973,71.10671 7.048007,22.98876 16.007516,39.42482 27.827876,54.60042 15.13207,19.42733 34.19925,36.28036 55.28175,49.00549 19.52615,11.78572 43.64365,19.7003 66.29188,22.38957 30.16655,3.58194 60.58045,1.09582 88.15497,-9.54602 28.32867,-10.9329 54.79923,-28.95459 71.89068,-48.4909 18.30486,-20.92329 31.92854,-46.75917 39.2862,-73.56805 7.86063,-28.64146 7.17495,-59.47714 4.02808,-89.01049 -3.42635,-32.15628 -11.67981,-64.21812 -24.70883,-93.81558 C 410.51537,84.622959 397.11036,62.500594 379.85656,44.24722 331.9209,-6.4655544 282.56282,-6.5141097 232.17622,16.921362 Z"
     id="path829"
     inkscape:connector-curvature="0"
     sodipodi:nodetypes="csssssssssssssc"
     inkscape:export-xdpi="96"
     inkscape:export-ydpi="96" />
  <path
     style="fill:#ffcc00;stroke:none;stroke-width:1px;stroke-linecap:butt;stroke-linejoin:miter;stroke-opacity:1"
     d="m 158.81747,388.08589 c 0,0 -21.18059,15.66987 -32.94681,21.43216 -10.49534,5.13991 -23.9719,4.22448 -33.120882,11.49545 -5.804362,4.61289 -12.900667,11.48417 -11.849253,18.82338 1.39726,9.75332 12.860766,16.26569 22.136705,19.58783 14.61098,5.23287 29.23571,0.5473 44.14185,-3.77362 13.29684,-3.85443 26.98109,-10.19634 38.26875,-18.84277 8.14136,-6.23634 20.75377,-23.42093 20.75377,-23.42093 -18.15768,-6.77926 -34.24927,-15.00522 -47.38413,-25.3015 z"
     id="path835"
     inkscape:connector-curvature="0"
     sodipodi:nodetypes="csssssscc"
     inkscape:export-xdpi="96"
     inkscape:export-ydpi="96" />
  <path
     style="fill:#ffcc00;stroke:none;stroke-width:1px;stroke-linecap:butt;stroke-linejoin:miter;stroke-opacity:1"
     d="m 332.69055,410.75195 c 0,0 17.09397,19.31819 26.96788,27.92946 8.80741,7.68116 22.0617,10.28492 29.01707,19.67607 4.41268,5.95799 9.48877,14.43179 6.57365,21.2488 -3.87399,9.05935 -16.63242,12.38284 -26.45212,13.191 -15.46748,1.27295 -28.38117,-7.03812 -41.66106,-15.0698 -11.84617,-7.16456 -23.42273,-16.83213 -32.08791,-28.10539 -6.24987,-8.13099 -14.39908,-28.18995 -14.39908,-28.18995 19.29358,-1.84871 36.20024,-5.13884 52.04157,-10.68019 z"
     id="path835-6"
     inkscape:connector-curvature="0"
     sodipodi:nodetypes="csssssscc"
     inkscape:export-xdpi="96"
     inkscape:export-ydpi="96" />
  <path
     style="opacity:1;fill:#ffd42a;fill-opacity:1;fill-rule:nonzero;stroke:none;stroke-width:0;stroke-linecap:round;stroke-miterlimit:4;stroke-dasharray:none;stroke-opacity:1;paint-order:stroke fill markers"
     d="M 72.825435,262.26241 C 61.305797,259.03888 57.453776,257.39232 48.993678,252.07549 26.922254,238.2045 13.37446,217.862 9.5107092,192.7904 7.4794018,179.60936 7.7115649,171.27311 10.462048,158.62985 c 4.33856,-19.94311 10.479409,-28.35637 23.03334,-31.55674 5.45591,-1.39087 14.685442,0.21177 19.188102,3.3319 5.012441,3.47334 8.840262,9.04053 9.849303,14.32483 0.800226,4.19072 0.684681,5.33435 -1.441401,14.26617 -4.011249,16.85153 -4.247709,22.96485 -1.244559,32.17621 2.816421,8.6386 9.21044,15.33794 20.334693,21.30571 l 4.869205,2.25414 c -1.729732,18.76812 -2.085609,35.43363 0.387566,49.71772 0.279178,1.43706 0.437416,1.46451 -12.612871,-2.18734 z"
     id="path854"
     inkscape:connector-curvature="0"
     sodipodi:nodetypes="csssscsssscccc"
     inkscape:export-xdpi="96"
     inkscape:export-ydpi="96" />
  <path
     style="fill:#000000;stroke:#000000;stroke-width:1px;stroke-linecap:butt;stroke-linejoin:miter;stroke-opacity:1"
     d="m 199.28661,120.56831 c -3.92865,-0.62834 -4.98242,-0.33994 -8.0841,2.15175 -3.79912,3.05202 -4.25431,9.92445 -3.64013,12.84134 0.61869,2.93826 2.10097,4.95228 4.6161,6.59247 1.89156,1.23353 4.45497,1.60705 6.67175,1.17641 2.3859,-0.4635 4.79999,-1.86485 6.18441,-3.86255 2.05871,-2.97065 3.11259,-7.14422 2.14913,-10.62774 -1.06438,-3.84843 -3.95437,-7.64101 -7.89716,-8.27168 z"
     id="path870"
     inkscape:connector-curvature="0"
     sodipodi:nodetypes="ssssssss"
     inkscape:export-xdpi="96"
     inkscape:export-ydpi="96" />
  <path
     style="fill:#000000;stroke:#000000;stroke-width:1px;stroke-linecap:butt;stroke-linejoin:miter;stroke-opacity:1"
     d="m 372.05134,173.78841 c -3.90663,-0.75322 -4.79822,-1.38459 -6.86062,-4.7869 -2.52616,-4.16733 -0.60338,-10.78099 0.9714,-13.31191 1.58632,-2.54945 3.66803,-3.93504 6.59246,-4.6161 2.19937,-0.51219 4.73595,0.0136 6.67175,1.17642 2.08348,1.25156 3.87271,3.39408 4.49038,5.7448 0.91852,3.49562 0.4814,7.77794 -1.61538,10.72186 -2.31643,3.2523 -6.32928,5.82772 -10.24999,5.07183 z"
     id="path870-8"
     inkscape:connector-curvature="0"
     sodipodi:nodetypes="ssssssss"
     inkscape:export-xdpi="96"
     inkscape:export-ydpi="96" />
  <path
     style="fill:#000000;stroke:none;stroke-width:1px;stroke-linecap:butt;stroke-linejoin:miter;stroke-opacity:1"
     d="m 240.89838,169.42669 c -3.54824,-0.28543 -7.63279,1.68029 -9.62214,4.63222 -12.71575,81.36904 63.12947,106.70819 85.79231,25.3087 1.58316,-3.24912 2.79678,-7.30611 1.6154,-10.72187 -1.1301,-3.26746 -4.14467,-6.52205 -7.55168,-7.11007 -3.53035,-0.6093 -7.37782,-0.0343 -9.35526,4.67926 -4.90892,14.85964 -18.1042,13.69278 -29.87473,11.82938 -16.57844,-1.83705 -24.70409,-10.85449 -23.60076,-21.36782 0.34713,-3.30803 -3.58545,-7.25974 -7.40314,-7.2498 z"
     id="path887"
     inkscape:connector-curvature="0"
     sodipodi:nodetypes="cccssccsc"
     inkscape:export-xdpi="96"
     inkscape:export-ydpi="96" />
  <path
     style="fill:#ffaaaa;stroke:none;stroke-width:1px;stroke-linecap:butt;stroke-linejoin:miter;stroke-opacity:1"
     d="m 157.09244,164.65333 c -2.68663,1.04315 -3.98199,1.009 -5.55657,3.42291 -0.61042,0.93582 -1.6637,4.92761 -1.61603,6.0439 0.12882,3.01617 1.92416,6.17214 4.38081,7.92681 11.0591,4.40164 32.07109,7.41679 36.5612,6.44672 2.74377,-0.60827 5.44604,-2.43473 6.9064,-4.83589 1.12746,-1.85386 1.34757,-4.33709 0.86247,-6.45195 -0.52855,-2.30429 -1.94585,-4.60117 -3.9096,-5.91755 -6.89588,-3.0414 -33.09805,-8.09508 -37.62868,-6.63495 z"
     id="path889"
     inkscape:connector-curvature="0"
     sodipodi:nodetypes="cssccsscc"
     inkscape:export-xdpi="96"
     inkscape:export-ydpi="96" />
  <path
     style="fill:#ffaaaa;stroke:none;stroke-width:1px;stroke-linecap:butt;stroke-linejoin:miter;stroke-opacity:1"
     d="m 391.94006,205.02178 c 2.16784,1.89912 3.39676,2.31007 4.05076,5.11693 0.25354,1.08816 -0.12196,5.19947 -0.54825,6.23215 -1.15265,2.79023 -3.91911,5.14183 -6.82774,5.95044 -11.8976,0.35376 -32.67365,-3.99945 -36.5612,-6.44673 -2.37025,-1.51001 -4.28488,-4.15055 -4.83591,-6.90638 -0.42541,-2.12766 0.21706,-4.53642 1.39623,-6.35782 1.28479,-1.98455 3.4022,-3.65816 5.69773,-4.22351 7.52024,-0.49946 33.87069,3.71331 37.62869,6.63495 z"
     id="path889-3"
     inkscape:connector-curvature="0"
     sodipodi:nodetypes="cssccsscc"
     inkscape:export-xdpi="96"
     inkscape:export-ydpi="96" />
  <path
     style="fill:#0088aa;stroke:none;stroke-width:1px;stroke-linecap:butt;stroke-linejoin:miter;stroke-opacity:1"
     d="m 222.42069,25.592947 c 0,0 -9.13054,-14.670586 -15.51495,-19.7034731 C 198.8472,-0.46315374 189.02786,-5.15953 178.92196,-6.939136 c -7.93493,-1.397316 -16.34334,-0.248755 -24.09138,1.961124 -7.50263,2.139892 -14.97801,5.52206636 -20.82013,10.692956 -8.44956,7.478725 -15.17666,17.397757 -19.00801,28.011298 -2.61186,7.2353 -3.09762,15.326322 -2.22693,22.969189 1.05489,9.259775 3.88952,18.642872 8.8882,26.508582 4.14116,6.516356 16.55752,16.732472 16.55752,16.732472 20.58327,-25.379746 34.60284,-45.187304 84.19946,-74.343538 z"
     id="path906"
     inkscape:connector-curvature="0"
     sodipodi:nodetypes="cssssssscc"
     inkscape:export-xdpi="96"
     inkscape:export-ydpi="96" />
  <path
     style="fill:#ffcc00;stroke:none;stroke-width:1px;stroke-linecap:butt;stroke-linejoin:miter;stroke-opacity:1"
     d="m 197.54932,41.953312 c 0,0 -5.10459,-8.027814 -8.639,-10.813373 -4.58511,-3.613625 -10.30525,-6.335936 -16.12098,-6.844521 -4.79042,-0.418923 -9.86768,0.884569 -14.05583,3.247408 -4.68414,2.642673 -8.67758,6.847594 -11.23795,11.577221 -2.15185,3.974985 -3.05703,8.708475 -2.98333,13.227937 0.0627,3.842455 1.15067,7.736931 2.90178,11.157753 1.5646,3.056508 3.99992,5.657292 6.57135,7.932803 1.56172,1.382005 4.97005,4.485804 4.97005,4.485804 10.15553,-10.98191 22.52408,-23.088609 38.59391,-33.971032 z"
     id="path908"
     inkscape:connector-curvature="0"
     sodipodi:nodetypes="cssssssscc"
     inkscape:export-xdpi="96"
     inkscape:export-ydpi="96" />
  <path
     style="fill:#0088aa;stroke:none;stroke-width:1px;stroke-linecap:butt;stroke-linejoin:miter;stroke-opacity:1"
     d="m 393.79065,61.189834 c 0,0 17.28964,-10.259695 26.55208,-11.505821 10.03651,-1.350272 20.76653,0.06573 30.12473,3.935962 9.2217,3.813781 17.56275,10.395003 23.7534,18.221906 5.48639,6.936493 9.17784,15.523308 10.8663,24.204582 1.89745,9.755837 1.57361,20.229727 -1.12611,29.794687 -1.92453,6.81853 -5.81724,13.13944 -10.42079,18.52492 -5.03016,5.88455 -11.40174,10.73717 -18.22321,14.39747 -5.2345,2.80876 -17.62549,5.0332 -17.62549,5.0332 -8.59585,-35.79112 -21.65563,-69.530947 -43.90091,-102.606906 z"
     id="path910"
     inkscape:connector-curvature="0"
     sodipodi:nodetypes="cssssssscc"
     inkscape:export-xdpi="96"
     inkscape:export-ydpi="96" />
  <path
     style="fill:#ffcc00;stroke:none;stroke-width:1px;stroke-linecap:butt;stroke-linejoin:miter;stroke-opacity:1"
     d="m 408.92964,85.353171 c 0,0 8.65462,-5.528786 13.17473,-6.321113 5.52777,-0.968954 11.6535,-0.533609 16.73417,1.850015 4.83106,2.266516 8.84292,6.498472 11.52378,11.112485 2.53883,4.369556 3.96685,9.644272 3.73814,14.692672 -0.24866,5.48888 -2.42293,10.98425 -5.49208,15.54165 -2.19065,3.2529 -5.32567,5.99426 -8.80541,7.80305 -3.23087,1.67943 -11.4152,2.58446 -11.4152,2.58446 -6.70481,-19.07482 -13.17191,-34.120548 -19.45813,-47.263219 z"
     id="path912"
     inkscape:connector-curvature="0"
     sodipodi:nodetypes="csssssscc"
     inkscape:export-xdpi="96"
     inkscape:export-ydpi="96" />
  <path
     style="fill:#f4d7ee;stroke:none;stroke-width:1px;stroke-linecap:butt;stroke-linejoin:miter;stroke-opacity:1"
     d="m 83.52303,246.1781 c 1.50947,22.53743 2.15864,39.90724 19.51885,79.74762 l 290.26884,50.8403 c 17.08732,-15.16788 26.50385,-31.97543 35.72536,-50.5965 2.77786,-5.64414 7.34582,-17.38373 7.34582,-17.38373 z"
     id="path914"
     inkscape:connector-curvature="0"
     sodipodi:nodetypes="cccccc"
     inkscape:export-xdpi="96"
     inkscape:export-ydpi="96" />
  <path
     style="opacity:1;fill:#ffd42a;fill-opacity:1;fill-rule:nonzero;stroke:none;stroke-width:0;stroke-linecap:round;stroke-miterlimit:4;stroke-dasharray:none;stroke-opacity:1;paint-order:stroke fill markers"
     d="m 444.05368,320.50716 c 11.96142,-0.13218 16.10836,-0.72566 25.65627,-3.6717 24.90944,-7.68583 43.26063,-23.82876 53.48174,-47.04606 5.37359,-12.20617 7.30693,-20.31845 7.92246,-33.24278 0.97093,-20.38647 -2.78316,-30.10243 -14.08101,-36.44294 -4.91001,-2.75557 -14.23985,-3.59632 -19.39663,-1.74788 -5.74061,2.05767 -10.8789,6.44446 -13.22123,11.28754 -1.8576,3.8408 -2.04199,4.97537 -2.30008,14.15313 -0.48692,17.3155 -1.84077,23.28172 -7.12566,31.40194 -4.95629,7.61531 -12.86635,12.43148 -25.15613,15.31673 l -5.2867,0.91709 c -3.18675,18.57631 -7.15636,34.76607 -13.24226,47.92333 -0.6416,1.31584 -0.80155,1.30139 12.74922,1.15165 z"
     id="path854-9"
     inkscape:connector-curvature="0"
     sodipodi:nodetypes="csssscsssscccc"
     inkscape:export-xdpi="96"
     inkscape:export-ydpi="96" />
</svg>
