<?xml version="1.0" encoding="UTF-8" standalone="no"?>
<!-- Created with Inkscape (http://www.inkscape.org/) -->

<svg
   xmlns:dc="http://purl.org/dc/elements/1.1/"
   xmlns:cc="http://creativecommons.org/ns#"
   xmlns:rdf="http://www.w3.org/1999/02/22-rdf-syntax-ns#"
   xmlns:svg="http://www.w3.org/2000/svg"
   xmlns="http://www.w3.org/2000/svg"
   xmlns:sodipodi="http://sodipodi.sourceforge.net/DTD/sodipodi-0.dtd"
   xmlns:inkscape="http://www.inkscape.org/namespaces/inkscape"
   version="1.1"
   id="svg815"
   width="512"
   height="512"
   viewBox="0 0 512 512"
   sodipodi:docname="petHello.svg"
   inkscape:version="0.92.2 (5c3e80d, 2017-08-06)">
  <metadata
     id="metadata821">
    <rdf:RDF>
      <cc:Work
         rdf:about="">
        <dc:format>image/svg+xml</dc:format>
        <dc:type
           rdf:resource="http://purl.org/dc/dcmitype/StillImage" />
        <dc:title></dc:title>
      </cc:Work>
    </rdf:RDF>
  </metadata>
  <defs
     id="defs819" />
  <sodipodi:namedview
     pagecolor="#ffffff"
     bordercolor="#666666"
     borderopacity="1"
     objecttolerance="10"
     gridtolerance="10"
     guidetolerance="10"
     inkscape:pageopacity="0"
     inkscape:pageshadow="2"
     inkscape:window-width="1600"
     inkscape:window-height="837"
     id="namedview817"
     showgrid="false"
     inkscape:zoom="0.92255338"
     inkscape:cx="111.38602"
     inkscape:cy="181.86034"
     inkscape:window-x="-8"
     inkscape:window-y="-8"
     inkscape:window-maximized="1"
     inkscape:current-layer="svg815" />
  <path
     style="fill:#00aad4;fill-opacity:1;stroke:none;stroke-width:1px;stroke-linecap:butt;stroke-linejoin:miter;stroke-opacity:1"
     d="m 195.49559,28.181282 c -1.39675,0.859563 -40.83569,37.411368 -56.76505,63.028299 -16.10558,25.900329 -28.28863,56.029219 -37.4639,84.179879 -9.004135,27.6256 -12.828092,64.04256 -10.823526,85.12433 2.464661,25.92053 10.058046,47.22914 21.283086,68.30058 11.305,21.22156 23.23605,35.6461 37.73488,48.28743 18.56097,16.18306 40.49353,29.08827 63.61676,37.55688 21.41621,7.84344 46.60078,11.01076 69.34602,9.32911 30.2958,-2.23989 59.67652,-10.48359 84.71386,-26.19138 25.7221,-16.1374 48.26764,-38.87881 61.31737,-61.31737 13.9762,-24.03159 22.41983,-51.99233 24.52695,-79.71257 2.25116,-29.6151 -4.30566,-59.75343 -13.02994,-88.14372 C 430.453,137.71107 416.2335,107.81313 397.79641,81.245509 383.47623,60.610303 366.09636,41.452181 345.67665,26.826347 288.94525,-13.808128 240.48475,-4.4378277 195.49559,28.181282 Z"
     id="path829"
     inkscape:connector-curvature="0"
     sodipodi:nodetypes="csssssssssssssc"
     inkscape:export-xdpi="96"
     inkscape:export-ydpi="96" />
  <path
     style="fill:#ffcc00;stroke:none;stroke-width:1px;stroke-linecap:butt;stroke-linejoin:miter;stroke-opacity:1"
     d="m 192.1298,405.5021 c 0,0 -18.13777,19.10978 -28.72462,26.82771 -9.44336,6.88432 -22.87414,8.32298 -30.62154,17.07219 -4.91516,5.55073 -10.71047,13.54988 -8.40059,20.59501 3.06968,9.36252 15.48989,13.78534 25.20179,15.44626 15.29768,2.61619 28.88659,-4.53775 42.81595,-11.38145 12.42552,-6.10484 24.80061,-14.72665 34.41535,-25.2018 6.93475,-7.55533 16.37147,-26.66897 16.37147,-26.66897 -19.05903,-3.52322 -36.33457,-8.82994 -51.05781,-16.68895 z"
     id="path835"
     inkscape:connector-curvature="0"
     sodipodi:nodetypes="csssssscc"
     inkscape:export-xdpi="96"
     inkscape:export-ydpi="96" />
  <path
     style="fill:#ffcc00;stroke:none;stroke-width:1px;stroke-linecap:butt;stroke-linejoin:miter;stroke-opacity:1"
     d="m 349.80274,407.04704 c 0,0 18.71262,17.75484 29.29947,25.47277 9.44336,6.88432 22.87414,8.32298 30.62154,17.07219 4.91516,5.55073 10.71047,13.54988 8.40059,20.59501 -3.06968,9.36252 -15.48989,13.78534 -25.20179,15.44626 -15.29768,2.61619 -28.88659,-4.53775 -42.81595,-11.38145 -12.42552,-6.10484 -24.80061,-14.72665 -34.41535,-25.2018 -6.93475,-7.55533 -16.8012,-26.82771 -16.8012,-26.82771 19.05903,-3.52322 35.6146,-8.27435 50.91269,-15.17527 z"
     id="path835-6"
     inkscape:connector-curvature="0"
     sodipodi:nodetypes="csssssscc"
     inkscape:export-xdpi="96"
     inkscape:export-ydpi="96" />
  <path
     style="fill:#ffd42a;stroke:none;stroke-width:1px;stroke-linecap:butt;stroke-linejoin:miter;stroke-opacity:1"
     d="m 89.696707,251.85245 c 0,0 -19.253285,-4.8427 -25.743768,-13.82034 -4.903243,-6.78218 -7.105722,-13.88248 -8.129611,-22.22094 -0.823719,-6.70829 2.912303,-17.66369 0.270987,-27.91166 -1.753852,-6.80472 -8.44212,-12.6221 -15.175273,-14.6333 -7.927278,-2.36789 -17.800819,-0.19388 -24.117846,5.14875 -7.5719075,6.40396 -9.6005134,17.50018 -10.5684943,27.3697 -1.4017033,14.29175 1.3827733,29.23533 6.7746753,42.54496 4.723469,11.65964 12.33267,22.472 21.678963,30.89252 9.523152,8.57986 21.429909,14.68126 33.602392,18.69811 9.948163,3.28284 31.163508,4.0648 31.163508,4.0648 -4.764415,-14.69411 -9.248585,-29.76187 -9.755533,-50.1326 z"
     id="path852"
     inkscape:connector-curvature="0"
     sodipodi:nodetypes="cssssssssscc"
     inkscape:export-xdpi="96"
     inkscape:export-ydpi="96" />
  <path
     style="opacity:1;fill:#ffd42a;fill-opacity:1;fill-rule:nonzero;stroke:none;stroke-width:0;stroke-linecap:round;stroke-miterlimit:4;stroke-dasharray:none;stroke-opacity:1;paint-order:stroke fill markers"
     d="M 85.910692,300.78359 C 74.006307,299.60939 69.926884,298.65675 60.672051,294.88977 36.527271,285.06218 19.652864,267.38128 11.494179,243.3615 7.2048677,230.73345 5.9859207,222.48352 6.499149,209.55474 c 0.8095533,-20.39353 5.396164,-29.74531 17.203639,-35.07703 5.131502,-2.31715 14.499108,-2.34155 19.475166,-0.0507 5.539431,2.55018 10.27583,7.36809 12.187152,12.39689 1.51578,3.9881 1.600576,5.13442 1.057789,14.29973 -1.024067,17.29207 -0.195367,23.35358 4.361694,31.9035 4.273705,8.01829 11.733918,13.50555 23.725461,17.45094 l 5.186657,1.37438 c 1.555596,18.78335 4.099058,35.25746 9.015066,48.89509 0.524478,1.36675 0.685084,1.3663 -12.801081,0.0361 z"
     id="path854"
     inkscape:connector-curvature="0"
     sodipodi:nodetypes="csssscsssscccc"
     inkscape:export-xdpi="96"
     inkscape:export-ydpi="96" />
  <path
     style="fill:#ffcc00;stroke:none;stroke-width:1px;stroke-linecap:butt;stroke-linejoin:miter;stroke-opacity:1"
     d="m 452.54834,259.98206 c 0,0 22.51647,16.6183 30.35055,27.91167 9.16874,13.21738 14.33296,29.08761 18.15613,44.71286 2.73862,11.19271 3.56987,22.89686 3.25184,34.41535 -0.23447,8.49201 0.37364,17.79899 -3.79382,25.20179 -2.42262,4.30339 -6.78141,7.68792 -11.38145,9.48455 -5.05466,1.97419 -11.10224,2.50191 -16.25922,0.81296 -6.52911,-2.13833 -12.71304,-6.96794 -15.98824,-13.00738 -4.07059,-7.50614 -1.75259,-16.98777 -2.70987,-25.47278 -1.11163,-9.85313 -0.77376,-22.26095 -3.79382,-31.70548 -2.35159,-7.35405 -10.83948,-18.15613 -10.83948,-18.15613 4.99058,-17.29697 11.0777,-34.29352 13.00738,-54.19741 z"
     id="path868"
     inkscape:connector-curvature="0"
     sodipodi:nodetypes="cssssssssscc"
     inkscape:export-xdpi="96"
     inkscape:export-ydpi="96" />
  <path
     style="fill:#000000;stroke:#000000;stroke-width:1px;stroke-linecap:butt;stroke-linejoin:miter;stroke-opacity:1"
     d="m 165.84407,159.44587 c -3.97808,0.0634 -4.96576,0.53036 -7.58763,3.52284 -3.21143,3.66537 -2.46632,10.51243 -1.35495,13.27836 1.11951,2.78618 2.929,4.51221 5.69073,5.69073 2.07702,0.88633 4.66635,0.80904 6.77467,0 2.26917,-0.87076 4.40325,-2.67003 5.41974,-4.87777 1.51158,-3.28302 1.82471,-7.57619 0.27099,-10.83948 -1.71648,-3.60514 -5.22115,-6.83826 -9.21355,-6.77468 z"
     id="path870"
     inkscape:connector-curvature="0"
     sodipodi:nodetypes="ssssssss"
     inkscape:export-xdpi="96"
     inkscape:export-ydpi="96" />
  <path
     style="fill:#000000;stroke:#000000;stroke-width:1px;stroke-linecap:butt;stroke-linejoin:miter;stroke-opacity:1"
     d="m 377.31,182.66383 c -3.97808,-0.0634 -4.96576,-0.53036 -7.58763,-3.52284 -3.21143,-3.66537 -2.46632,-10.51243 -1.35495,-13.27836 1.11951,-2.78618 2.929,-4.51221 5.69073,-5.69073 2.07702,-0.88633 4.66635,-0.80904 6.77467,0 2.26917,0.87076 4.40325,2.67003 5.41974,4.87777 1.51158,3.28302 1.82471,7.57619 0.27099,10.83948 -1.71648,3.60514 -5.22115,6.83826 -9.21355,6.77468 z"
     id="path870-8"
     inkscape:connector-curvature="0"
     sodipodi:nodetypes="ssssssss"
     inkscape:export-xdpi="96"
     inkscape:export-ydpi="96" />
  <path
     style="fill:#000000;stroke:none;stroke-width:1px;stroke-linecap:butt;stroke-linejoin:miter;stroke-opacity:1"
     d="m 236.0297,172.18226 c -3.54389,0.33506 -7.22505,2.98017 -8.67158,6.23271 -1.66195,3.73691 -0.15716,8.39438 1.35493,12.19441 2.05055,5.15324 5.78453,9.51247 10.29751,12.7364 4.48596,3.20463 10.05753,4.52662 15.44626,5.69072 5.68441,1.22797 11.52767,1.87841 17.34317,1.89691 6.1748,0.0196 12.48276,-0.22563 18.42712,-1.89691 6.45656,-1.81529 13.0998,-4.26523 18.15613,-8.67158 3.58863,-3.12732 6.5483,-7.34724 7.85862,-11.92343 0.99491,-3.47466 1.4856,-7.68077 -0.27098,-10.83949 -1.68031,-3.02158 -5.21424,-5.70325 -8.67159,-5.69072 -3.58252,0.013 -7.2717,1.24737 -8.4006,6.2327 -2.25399,15.48631 -15.45142,16.62852 -27.36671,16.83736 -16.64557,1.06968 -26.21364,-6.39976 -26.9527,-16.94497 -0.23255,-3.31805 -4.79161,-6.52684 -8.54958,-5.85411 z"
     id="path887"
     inkscape:connector-curvature="0"
     sodipodi:nodetypes="cssssssssssccsc"
     inkscape:export-xdpi="96"
     inkscape:export-ydpi="96" />
  <path
     style="fill:#ffaaaa;stroke:none;stroke-width:1px;stroke-linecap:butt;stroke-linejoin:miter;stroke-opacity:1"
     d="m 146.60398,204.70071 c -2.46468,1.49383 -3.74629,1.68514 -4.87777,4.33579 -0.43864,1.0276 -0.78276,5.14165 -0.54197,6.2327 0.65062,2.94799 2.96671,5.74425 5.69073,7.04566 11.65542,2.41438 32.87177,1.73503 37.12522,0 2.59645,-1.07548 4.94052,-3.34343 5.96172,-5.96171 0.78842,-2.02147 0.57398,-4.5052 -0.27099,-6.50369 -0.92066,-2.1775 -2.71528,-4.19337 -4.87777,-5.14875 -7.31926,-1.79774 -34.00092,-2.22468 -38.20917,0 z"
     id="path889"
     inkscape:connector-curvature="0"
     sodipodi:nodetypes="cssccsscc"
     inkscape:export-xdpi="96"
     inkscape:export-ydpi="96" />
  <path
     style="fill:#ffaaaa;stroke:none;stroke-width:1px;stroke-linecap:butt;stroke-linejoin:miter;stroke-opacity:1"
     d="m 397.20156,204.80936 c 2.46468,1.49383 3.74629,1.68514 4.87777,4.33579 0.43864,1.0276 0.78276,5.14165 0.54197,6.2327 -0.65062,2.94799 -2.96671,5.74425 -5.69073,7.04566 -11.65542,2.41438 -32.87177,1.73503 -37.12522,0 -2.59645,-1.07548 -4.94052,-3.34343 -5.96172,-5.96171 -0.78842,-2.02147 -0.57398,-4.5052 0.27099,-6.50369 0.92066,-2.1775 2.71528,-4.19337 4.87777,-5.14875 7.31926,-1.79774 34.00092,-2.22468 38.20917,0 z"
     id="path889-3"
     inkscape:connector-curvature="0"
     sodipodi:nodetypes="cssccsscc"
     inkscape:export-xdpi="96"
     inkscape:export-ydpi="96" />
  <path
     style="fill:#0088aa;stroke:none;stroke-width:1px;stroke-linecap:butt;stroke-linejoin:miter;stroke-opacity:1"
     d="m 175.90346,47.36949 c 0,0 -12.61645,-11.807546 -20.08592,-15.016533 -9.42815,-4.050461 -20.12841,-6.045383 -30.35055,-5.148754 -8.02621,0.704014 -15.85084,3.989688 -22.76291,8.129611 -6.69314,4.008799 -13.038425,9.210498 -17.343166,15.717248 -6.226007,9.410801 -10.156655,20.732956 -11.110468,31.976469 -0.65022,7.664768 0.974684,15.605819 3.793819,22.762909 3.415544,8.67123 8.582117,17.00095 15.44626,23.30489 5.686606,5.2225 20.324025,11.87692 20.324025,11.87692 13.31314,-29.84229 21.72844,-52.603455 62.08891,-93.60276 z"
     id="path906"
     inkscape:connector-curvature="0"
     sodipodi:nodetypes="cssssssscc"
     inkscape:export-xdpi="96"
     inkscape:export-ydpi="96" />
  <path
     style="fill:#ffcc00;stroke:none;stroke-width:1px;stroke-linecap:butt;stroke-linejoin:miter;stroke-opacity:1"
     d="m 155.30844,69.828537 c 0,0 -7.0084,-6.433114 -11.14334,-8.208981 -5.36415,-2.303785 -11.59396,-3.452853 -17.34317,-2.438883 -4.73561,0.835205 -9.3025,3.408376 -12.73639,6.774675 -3.84056,3.764964 -6.60961,8.860188 -7.85862,14.091326 -1.04972,4.396481 -0.69894,9.202961 0.54197,13.549351 1.05502,3.695311 3.11392,7.175485 5.69073,10.026525 2.30238,2.54741 5.32784,4.42927 8.4006,5.96171 1.8662,0.93071 5.96171,3.04661 5.96171,3.04661 6.96717,-13.236158 15.78083,-28.131546 28.48651,-42.802333 z"
     id="path908"
     inkscape:connector-curvature="0"
     sodipodi:nodetypes="cssssssscc"
     inkscape:export-xdpi="96"
     inkscape:export-ydpi="96" />
  <path
     style="fill:#0088aa;stroke:none;stroke-width:1px;stroke-linecap:butt;stroke-linejoin:miter;stroke-opacity:1"
     d="m 367.96751,45.855814 c 0,0 15.24539,-13.106137 24.15072,-15.941741 9.64956,-3.072576 20.46246,-3.54134 30.35055,-1.354935 9.74385,2.154513 19.101,7.187339 26.55673,13.820339 6.60755,5.878409 11.734,13.693762 14.90429,21.949949 3.56271,9.278144 5.06256,19.649143 4.0648,29.537587 -0.71127,7.049137 -3.44723,13.949967 -7.04566,20.053037 -3.93189,6.66862 -9.36403,12.55394 -15.44626,17.34317 -4.66724,3.67505 -16.48372,8.01737 -16.48372,8.01737 -14.68032,-33.75473 -33.40055,-64.714164 -61.05145,-93.424776 z"
     id="path910"
     inkscape:connector-curvature="0"
     sodipodi:nodetypes="cssssssscc"
     inkscape:export-xdpi="96"
     inkscape:export-ydpi="96" />
  <path
     style="fill:#ffcc00;stroke:none;stroke-width:1px;stroke-linecap:butt;stroke-linejoin:miter;stroke-opacity:1"
     d="m 388.37091,68.777466 c 0,0 7.56307,-6.947647 11.87693,-8.512845 5.27553,-1.914121 11.38379,-2.549111 16.8012,-1.083948 5.15123,1.393172 9.83702,4.864189 13.27836,8.942572 3.25902,3.862315 5.5813,8.808913 6.23271,13.820338 0.70825,5.448661 -0.47873,11.238111 -2.70987,16.259222 -1.5925,3.583885 -4.20387,6.827985 -7.31665,9.213555 -2.89015,2.21494 -10.79299,4.52742 -10.79299,4.52742 -9.91526,-17.620752 -18.89677,-31.314904 -27.36969,-43.166314 z"
     id="path912"
     inkscape:connector-curvature="0"
     sodipodi:nodetypes="csssssscc"
     inkscape:export-xdpi="96"
     inkscape:export-ydpi="96" />
  <path
     style="fill:#f4d7ee;stroke:none;stroke-width:1px;stroke-linecap:butt;stroke-linejoin:miter;stroke-opacity:1"
     d="m 91.737937,275.92814 c 5.400118,21.93292 9.055653,38.92611 33.070333,75.14665 l 294.68733,-0.33673 c 14.19385,-17.90463 20.54872,-36.09199 26.39662,-56.03147 1.75556,-6.04076 4.21556,-18.39521 4.21556,-18.39521 z"
     id="path914"
     inkscape:connector-curvature="0"
     sodipodi:nodetypes="cccccc"
     inkscape:export-xdpi="96"
     inkscape:export-ydpi="96" />
</svg>
