<?xml version="1.0" encoding="UTF-8" standalone="no"?>
<!-- Created with Inkscape (http://www.inkscape.org/) -->

<svg
   xmlns:dc="http://purl.org/dc/elements/1.1/"
   xmlns:cc="http://creativecommons.org/ns#"
   xmlns:rdf="http://www.w3.org/1999/02/22-rdf-syntax-ns#"
   xmlns:svg="http://www.w3.org/2000/svg"
   xmlns="http://www.w3.org/2000/svg"
   xmlns:sodipodi="http://sodipodi.sourceforge.net/DTD/sodipodi-0.dtd"
   xmlns:inkscape="http://www.inkscape.org/namespaces/inkscape"
   version="1.1"
   id="svg815"
   width="512"
   height="512"
   viewBox="0 0 512 512"
   sodipodi:docname="petSleep.svg"
   inkscape:version="0.92.2 (5c3e80d, 2017-08-06)">
  <metadata
     id="metadata821">
    <rdf:RDF>
      <cc:Work
         rdf:about="">
        <dc:format>image/svg+xml</dc:format>
        <dc:type
           rdf:resource="http://purl.org/dc/dcmitype/StillImage" />
        <dc:title></dc:title>
      </cc:Work>
    </rdf:RDF>
  </metadata>
  <defs
     id="defs819" />
  <sodipodi:namedview
     pagecolor="#ffffff"
     bordercolor="#666666"
     borderopacity="1"
     objecttolerance="10"
     gridtolerance="10"
     guidetolerance="10"
     inkscape:pageopacity="0"
     inkscape:pageshadow="2"
     inkscape:window-width="1600"
     inkscape:window-height="837"
     id="namedview817"
     showgrid="false"
     inkscape:zoom="0.80103977"
     inkscape:cx="260.11843"
     inkscape:cy="394.39587"
     inkscape:window-x="-8"
     inkscape:window-y="-8"
     inkscape:window-maximized="1"
     inkscape:current-layer="svg815"
     inkscape:measure-start="0,0"
     inkscape:measure-end="0,0" />
  <path
     style="fill:#00aad4;fill-opacity:1;stroke:none;stroke-width:1px;stroke-linecap:butt;stroke-linejoin:miter;stroke-opacity:1"
     d="m 195.49559,28.181282 c -1.39675,0.859563 -40.83569,37.411368 -56.76505,63.028299 -16.10558,25.900329 -28.28863,56.029219 -37.4639,84.179879 -9.004135,27.6256 -12.828092,64.04256 -10.823526,85.12433 2.464661,25.92053 10.058046,47.22914 21.283086,68.30058 11.305,21.22156 23.23605,35.6461 37.73488,48.28743 18.56097,16.18306 40.49353,29.08827 63.61676,37.55688 21.41621,7.84344 46.60078,11.01076 69.34602,9.32911 30.2958,-2.23989 59.67652,-10.48359 84.71386,-26.19138 25.7221,-16.1374 48.26764,-38.87881 61.31737,-61.31737 13.9762,-24.03159 22.41983,-51.99233 24.52695,-79.71257 2.25116,-29.6151 -4.30566,-59.75343 -13.02994,-88.14372 C 430.453,137.71107 416.2335,107.81313 397.79641,81.245509 383.47623,60.610303 366.09636,41.452181 345.67665,26.826347 288.94525,-13.808128 240.48475,-4.4378277 195.49559,28.181282 Z"
     id="path829"
     inkscape:connector-curvature="0"
     sodipodi:nodetypes="csssssssssssssc"
     inkscape:export-xdpi="96"
     inkscape:export-ydpi="96" />
  <path
     style="fill:#ffcc00;stroke:none;stroke-width:1px;stroke-linecap:butt;stroke-linejoin:miter;stroke-opacity:1"
     d="m 192.1298,405.5021 c 0,0 -18.13777,19.10978 -28.72462,26.82771 -9.44336,6.88432 -22.87414,8.32298 -30.62154,17.07219 -4.91516,5.55073 -10.71047,13.54988 -8.40059,20.59501 3.06968,9.36252 15.48989,13.78534 25.20179,15.44626 15.29768,2.61619 28.88659,-4.53775 42.81595,-11.38145 12.42552,-6.10484 24.80061,-14.72665 34.41535,-25.2018 6.93475,-7.55533 16.37147,-26.66897 16.37147,-26.66897 -19.05903,-3.52322 -36.33457,-8.82994 -51.05781,-16.68895 z"
     id="path835"
     inkscape:connector-curvature="0"
     sodipodi:nodetypes="csssssscc"
     inkscape:export-xdpi="96"
     inkscape:export-ydpi="96" />
  <path
     style="fill:#ffcc00;stroke:none;stroke-width:1px;stroke-linecap:butt;stroke-linejoin:miter;stroke-opacity:1"
     d="m 349.80274,407.04704 c 0,0 18.71262,17.75484 29.29947,25.47277 9.44336,6.88432 22.87414,8.32298 30.62154,17.07219 4.91516,5.55073 10.71047,13.54988 8.40059,20.59501 -3.06968,9.36252 -15.48989,13.78534 -25.20179,15.44626 -15.29768,2.61619 -28.88659,-4.53775 -42.81595,-11.38145 -12.42552,-6.10484 -24.80061,-14.72665 -34.41535,-25.2018 -6.93475,-7.55533 -16.8012,-26.82771 -16.8012,-26.82771 19.05903,-3.52322 35.6146,-8.27435 50.91269,-15.17527 z"
     id="path835-6"
     inkscape:connector-curvature="0"
     sodipodi:nodetypes="csssssscc"
     inkscape:export-xdpi="96"
     inkscape:export-ydpi="96" />
  <path
     style="fill:#000000;stroke:#000000;stroke-width:1.29736805px;stroke-linecap:butt;stroke-linejoin:miter;stroke-opacity:1"
     d="m 172.60356,159.44587 c -6.69576,0.0634 -8.35819,0.53036 -12.77123,3.52284 -5.40536,3.66537 -4.15122,10.51243 -2.2806,13.27836 1.88432,2.78618 4.92999,4.51221 9.57843,5.69073 3.49597,0.88633 7.85423,0.80904 11.40288,0 3.81939,-0.87076 7.41139,-2.67003 9.12231,-4.87777 2.54424,-3.28302 3.07129,-7.57619 0.45612,-10.83948 -2.88911,-3.60514 -8.78805,-6.83826 -15.50791,-6.77468 z"
     id="path870"
     inkscape:connector-curvature="0"
     sodipodi:nodetypes="ssssssss"
     inkscape:export-xdpi="96"
     inkscape:export-ydpi="96" />
  <path
     style="fill:#0088aa;stroke:none;stroke-width:1px;stroke-linecap:butt;stroke-linejoin:miter;stroke-opacity:1"
     d="m 175.90346,47.36949 c 0,0 -12.61645,-11.807546 -20.08592,-15.016533 -9.42815,-4.050461 -20.12841,-6.045383 -30.35055,-5.148754 -8.02621,0.704014 -15.85084,3.989688 -22.76291,8.129611 -6.69314,4.008799 -13.038425,9.210498 -17.343166,15.717248 -6.226007,9.410801 -10.156655,20.732956 -11.110468,31.976469 -0.65022,7.664768 0.974684,15.605819 3.793819,22.762909 3.415544,8.67123 8.582117,17.00095 15.44626,23.30489 5.686606,5.2225 20.324025,11.87692 20.324025,11.87692 13.31314,-29.84229 21.72844,-52.603455 62.08891,-93.60276 z"
     id="path906"
     inkscape:connector-curvature="0"
     sodipodi:nodetypes="cssssssscc"
     inkscape:export-xdpi="96"
     inkscape:export-ydpi="96" />
  <path
     style="fill:#ffcc00;stroke:none;stroke-width:1px;stroke-linecap:butt;stroke-linejoin:miter;stroke-opacity:1"
     d="m 155.30844,69.828537 c 0,0 -7.0084,-6.433114 -11.14334,-8.208981 -5.36415,-2.303785 -11.59396,-3.452853 -17.34317,-2.438883 -4.73561,0.835205 -9.3025,3.408376 -12.73639,6.774675 -3.84056,3.764964 -6.60961,8.860188 -7.85862,14.091326 -1.04972,4.396481 -0.69894,9.202961 0.54197,13.549351 1.05502,3.695311 3.11392,7.175485 5.69073,10.026525 2.30238,2.54741 5.32784,4.42927 8.4006,5.96171 1.8662,0.93071 5.96171,3.04661 5.96171,3.04661 6.96717,-13.236158 15.78083,-28.131546 28.48651,-42.802333 z"
     id="path908"
     inkscape:connector-curvature="0"
     sodipodi:nodetypes="cssssssscc"
     inkscape:export-xdpi="96"
     inkscape:export-ydpi="96" />
  <path
     style="fill:#0088aa;stroke:none;stroke-width:1px;stroke-linecap:butt;stroke-linejoin:miter;stroke-opacity:1"
     d="m 367.96751,45.855814 c 0,0 15.24539,-13.106137 24.15072,-15.941741 9.64956,-3.072576 20.46246,-3.54134 30.35055,-1.354935 9.74385,2.154513 19.101,7.187339 26.55673,13.820339 6.60755,5.878409 11.734,13.693762 14.90429,21.949949 3.56271,9.278144 5.06256,19.649143 4.0648,29.537587 -0.71127,7.049137 -3.44723,13.949967 -7.04566,20.053037 -3.93189,6.66862 -9.36403,12.55394 -15.44626,17.34317 -4.66724,3.67505 -16.48372,8.01737 -16.48372,8.01737 -14.68032,-33.75473 -33.40055,-64.714164 -61.05145,-93.424776 z"
     id="path910"
     inkscape:connector-curvature="0"
     sodipodi:nodetypes="cssssssscc"
     inkscape:export-xdpi="96"
     inkscape:export-ydpi="96" />
  <path
     style="fill:#ffcc00;stroke:none;stroke-width:1px;stroke-linecap:butt;stroke-linejoin:miter;stroke-opacity:1"
     d="m 388.37091,68.777466 c 0,0 7.56307,-6.947647 11.87693,-8.512845 5.27553,-1.914121 11.38379,-2.549111 16.8012,-1.083948 5.15123,1.393172 9.83702,4.864189 13.27836,8.942572 3.25902,3.862315 5.5813,8.808913 6.23271,13.820338 0.70825,5.448661 -0.47873,11.238111 -2.70987,16.259222 -1.5925,3.583885 -4.20387,6.827985 -7.31665,9.213555 -2.89015,2.21494 -10.79299,4.52742 -10.79299,4.52742 -9.91526,-17.620752 -18.89677,-31.314904 -27.36969,-43.166314 z"
     id="path912"
     inkscape:connector-curvature="0"
     sodipodi:nodetypes="csssssscc"
     inkscape:export-xdpi="96"
     inkscape:export-ydpi="96" />
  <path
     style="fill:#f4d7ee;stroke:none;stroke-width:1px;stroke-linecap:butt;stroke-linejoin:miter;stroke-opacity:1"
     d="m 91.737937,275.92814 c 5.400118,21.93292 9.055653,38.92611 33.070333,75.14665 l 294.68733,-0.33673 c 14.19385,-17.90463 20.54872,-36.09199 26.39662,-56.03147 1.75556,-6.04076 4.21556,-18.39521 4.21556,-18.39521 z"
     id="path914"
     inkscape:connector-curvature="0"
     sodipodi:nodetypes="cccccc"
     inkscape:export-xdpi="96"
     inkscape:export-ydpi="96" />
  <path
     style="fill:#000000;stroke:#000000;stroke-width:1.29736805px;stroke-linecap:butt;stroke-linejoin:miter;stroke-opacity:1"
     d="m 371.0595,160.20652 c 6.69576,0.0634 8.35819,0.53036 12.77123,3.52284 5.40536,3.66537 4.15122,10.51243 2.2806,13.27836 -1.88432,2.78618 -4.92999,4.51221 -9.57843,5.69073 -3.49597,0.88633 -7.85423,0.80904 -11.40288,0 -3.81939,-0.87076 -7.41139,-2.67003 -9.12231,-4.87777 -2.54424,-3.28302 -3.07129,-7.57619 -0.45612,-10.83948 2.88911,-3.60514 8.78805,-6.83826 15.50791,-6.77468 z"
     id="path870-2"
     inkscape:connector-curvature="0"
     sodipodi:nodetypes="ssssssss"
     inkscape:export-xdpi="96"
     inkscape:export-ydpi="96" />
  <path
     style="fill:#ffcc00;fill-opacity:1;stroke:none;stroke-width:1px;stroke-linecap:butt;stroke-linejoin:miter;stroke-opacity:1"
     d="m 452.54834,259.98206 c 0,0 12.80275,2.26572 17.88514,5.96172 6.89657,5.01531 14.53198,12.75459 17.88515,20.59501 7.65102,16.79915 10.32167,37.59665 1.08395,53.65543 -7.15664,11.95038 -11.9751,15.54159 -23.30489,22.22094 -13.05131,7.69426 -36.88498,8.01366 -52.02951,7.58764 -14.556,-0.40946 -30.82278,-0.40135 -44.98385,-3.79382 -18.41363,-4.41124 -36.76712,-9.62505 -52.57148,-20.05304 -8.68983,-5.7337 -16.62056,-9.12519 -17.34317,-19.51106 -0.46666,-6.70708 4.78311,-21.62648 10.29751,-25.47278 8.13746,-5.67591 18.12703,-3.44254 27.0987,-2.16791 12.62339,1.79345 23.65889,9.56433 35.77029,13.54936 10.15968,3.34285 20.35572,6.83592 30.89252,8.67158 9.99213,1.74077 20.26743,3.26495 30.35055,2.1679 5.05753,-0.55026 14.06386,0.71961 14.6333,-4.3358 0.37121,-3.2956 -8.67159,-4.87776 -8.67159,-4.87776 v 0 c 3.50229,-9.94801 8.07009,-29.84903 13.00738,-54.19741 z"
     id="path6536"
     inkscape:connector-curvature="0"
     sodipodi:nodetypes="csccsssssssssssccc" />
  <path
     style="fill:#ffcc00;fill-opacity:1;stroke:none;stroke-width:1px;stroke-linecap:butt;stroke-linejoin:miter;stroke-opacity:1"
     d="m 452.54834,259.98206 c 0,0 12.80275,2.26572 17.88514,5.96172 6.89657,5.01531 14.53198,12.75459 17.88515,20.59501 7.65102,16.79915 10.32167,37.59665 1.08395,53.65543 -7.15664,11.95038 -11.9751,15.54159 -23.30489,22.22094 -13.05131,7.69426 -36.88498,8.01366 -52.02951,7.58764 -14.556,-0.40946 -30.82277,-0.40135 -44.98384,-3.79382 -18.41363,-4.41124 -36.76712,-9.62505 -52.57148,-20.05304 -8.68983,-5.7337 -16.62056,-9.12519 -17.34317,-19.51106 -0.46666,-6.70708 4.78311,-21.62648 10.29751,-25.47278 8.13746,-5.67591 18.12703,-3.44254 27.0987,-2.16791 12.62339,1.79345 23.65889,9.56433 35.77029,13.54936 10.15968,3.34285 20.35572,6.83592 30.89251,8.67158 9.99213,1.74077 20.26743,3.26495 30.35055,2.1679 5.05753,-0.55026 14.06386,0.71961 14.6333,-4.3358 0.37121,-3.2956 -8.67159,-4.87776 -8.67159,-4.87776 v 0 c 3.50229,-9.94801 8.07009,-29.84903 13.00738,-54.19741 z"
     id="path6536-8"
     inkscape:connector-curvature="0"
     sodipodi:nodetypes="csccsssssssssssccc" />
  <path
     style="fill:#000080;stroke:none;stroke-width:1px;stroke-linecap:butt;stroke-linejoin:miter;stroke-opacity:1"
     d="m 146.60398,204.70071 c -2.46468,1.49383 -3.74629,1.68514 -4.87777,4.33579 -0.43864,1.0276 -0.78276,5.14165 -0.54197,6.2327 0.65062,2.94799 2.96671,5.74425 5.69073,7.04566 11.65542,2.41438 32.87177,1.73503 37.12522,0 2.59645,-1.07548 4.94052,-3.34343 5.96172,-5.96171 0.78842,-2.02147 0.57398,-4.5052 -0.27099,-6.50369 -0.92066,-2.1775 -2.71528,-4.19337 -4.87777,-5.14875 -7.31926,-1.79774 -34.00092,-2.22468 -38.20917,0 z"
     id="path889"
     inkscape:connector-curvature="0"
     sodipodi:nodetypes="cssccsscc"
     inkscape:export-xdpi="96"
     inkscape:export-ydpi="96" />
  <path
     style="fill:#000080;stroke:none;stroke-width:1px;stroke-linecap:butt;stroke-linejoin:miter;stroke-opacity:1;fill-opacity:1"
     d="m 397.20156,204.80936 c 2.46468,1.49383 3.74629,1.68514 4.87777,4.33579 0.43864,1.0276 0.78276,5.14165 0.54197,6.2327 -0.65062,2.94799 -2.96671,5.74425 -5.69073,7.04566 -11.65542,2.41438 -32.87177,1.73503 -37.12522,0 -2.59645,-1.07548 -4.94052,-3.34343 -5.96172,-5.96171 -0.78842,-2.02147 -0.57398,-4.5052 0.27099,-6.50369 0.92066,-2.1775 2.71528,-4.19337 4.87777,-5.14875 7.31926,-1.79774 34.00092,-2.22468 38.20917,0 z"
     id="path889-3"
     inkscape:connector-curvature="0"
     sodipodi:nodetypes="cssccsscc"
     inkscape:export-xdpi="96"
     inkscape:export-ydpi="96" />
  <path
     style="fill:#ffcc00;fill-opacity:1;stroke:none;stroke-width:1px;stroke-linecap:butt;stroke-linejoin:miter;stroke-opacity:1"
     d="m 452.54834,259.98206 c 0,0 12.80275,2.26572 17.88514,5.96172 6.89657,5.01531 14.53198,12.75459 17.88515,20.59501 7.65102,16.79915 10.32167,37.59665 1.08395,53.65543 -7.15664,11.95038 -11.9751,15.54159 -23.30489,22.22094 -13.05131,7.69426 -36.88498,8.01366 -52.02951,7.58764 -14.556,-0.40946 -30.82276,-0.40135 -44.98383,-3.79382 -18.41363,-4.41124 -36.76712,-9.62505 -52.57148,-20.05304 -8.68983,-5.7337 -16.62056,-9.12519 -17.34317,-19.51106 -0.46666,-6.70708 4.78311,-21.62648 10.29751,-25.47278 8.13746,-5.67591 18.12703,-3.44254 27.0987,-2.16791 12.62339,1.79345 23.65889,9.56433 35.77029,13.54936 10.15968,3.34285 20.35572,6.83592 30.8925,8.67158 9.99213,1.74077 20.26743,3.26495 30.35055,2.1679 5.05753,-0.55026 14.06386,0.71961 14.6333,-4.3358 0.37121,-3.2956 -8.67159,-4.87776 -8.67159,-4.87776 v 0 c 3.50229,-9.94801 8.07009,-29.84903 13.00738,-54.19741 z"
     id="path6536-8-1"
     inkscape:connector-curvature="0"
     sodipodi:nodetypes="csccsssssssssssccc" />
  <path
     style="fill:#ffcc00;stroke:none;stroke-width:1px;stroke-linecap:butt;stroke-linejoin:miter;stroke-opacity:1;fill-opacity:1"
     d="m 91.532488,260.73491 c 0,0 -19.919368,5.53857 -27.241048,13.44918 -6.981131,7.54267 -11.483301,19.18855 -13.107963,29.33687 -1.778816,11.11124 -2.407486,23.29923 1.872566,33.70619 3.700081,8.99676 11.148843,16.61442 19.349851,21.84661 10.433284,6.65637 23.29247,9.12534 35.578756,10.61121 12.61526,1.52566 26.84514,-3.22614 38.6997,-7.80236 27.3236,-17.95997 47.29003,-44.65431 60.8584,-65.53982 6.67664,-10.20201 15.38126,-20.99665 15.91682,-33.082 0.45313,-10.22531 -3.13998,-20.01673 -10.61121,-25.27965 -6.30279,-4.43985 -15.89522,-4.00532 -23.09498,-1.24837 -9.61759,3.68279 -15.61684,13.64594 -21.84661,21.8466 -8.96087,11.79579 -13.48446,26.47218 -21.84661,38.6997 -5.00788,7.32275 -9.48548,15.65659 -16.85309,20.59823 -6.50452,4.36274 -14.64885,7.26525 -22.4708,6.86608 -4.28375,-0.21861 -11.722429,-0.70638 -11.859582,-4.99351 -0.115085,-3.59732 9.663182,-4.81755 9.663182,-4.81755 z"
     id="path5922"
     inkscape:connector-curvature="0"
     sodipodi:nodetypes="csssssccsssssssscc" />
  <ellipse
     style="opacity:1;fill:#000000;fill-opacity:1;fill-rule:nonzero;stroke:#000000;stroke-width:0;stroke-linecap:round;stroke-miterlimit:4;stroke-dasharray:none;stroke-opacity:1;paint-order:stroke fill markers"
     id="path5924"
     cx="271.52209"
     cy="227.68202"
     rx="46.189968"
     ry="57.737457" />
  <path
     style="fill:#000000;stroke:#000000;stroke-width:0.70069987px;stroke-linecap:butt;stroke-linejoin:miter;stroke-opacity:1"
     d="m 307.54975,96.260817 c 3.36919,-0.9054 11.00421,-0.07147 14.50191,0 4.46112,0.09115 4.96596,-0.258001 9.37047,0.428701 1.8571,0.289538 4.14531,0.330049 5.35455,1.714802 2.78015,4.40578 -0.17411,8.81842 -3.12349,12.00361 -3.58041,3.76736 -8.5611,6.04169 -12.71706,9.21707 -2.96267,2.04463 -12.47261,8.85053 -9.59357,12.43231 11.23718,7.36518 33.23512,-6.36547 30.34246,4.93006 -4.04581,3.07965 -11.58926,3.0525 -16.95608,3.21525 -6.90456,-0.39112 -10.04744,1.03773 -15.84055,-0.85739 -22.22783,-14.10476 23.66129,-29.97439 20.74889,-35.79651 -1.85423,-2.6158 -16.87741,0.73156 -22.31064,0.21436 -6.14439,-1.87734 -5.25029,-5.884703 0.22311,-7.502263 z"
     id="path5953"
     inkscape:connector-curvature="0"
     sodipodi:nodetypes="csscccccccccc" />
  <path
     style="fill:#000000;stroke:#000000;stroke-width:0.92255974px;stroke-linecap:butt;stroke-linejoin:miter;stroke-opacity:1"
     d="m 357.66444,45.040352 c 4.50486,-1.173841 14.71346,-0.0927 19.39016,0 5.96485,0.11811 6.63986,-0.334494 12.52903,0.555817 2.48308,0.375373 5.5426,0.427893 7.15944,2.223219 3.71727,5.712044 -0.2328,11.432983 -4.17634,15.562546 -4.78728,4.884339 -11.44685,7.832983 -17.00368,11.949827 -3.96132,2.65084 -16.67683,11.474613 -12.82734,16.11835 15.02497,9.548869 44.43789,-8.25276 40.57019,6.391767 -5.40956,3.992732 -15.49573,3.957532 -22.67158,4.168532 -9.23192,-0.50708 -13.43419,1.34541 -21.18002,-1.11159 -29.7203,-18.286665 31.63695,-38.861462 27.74285,-46.409775 -2.47925,-3.391355 -22.56639,0.948459 -29.83103,0.277915 -8.21552,-2.43395 -7.02004,-7.62946 0.29832,-9.726608 z"
     id="path5953-1"
     inkscape:connector-curvature="0"
     sodipodi:nodetypes="csscccccccccc" />
</svg>
